<svg width="143" height="35" fill="none" xmlns="http://www.w3.org/2000/svg"><path d="M7.746 27.496c-1.136 1.31-3.126 1.442-4.185.066a17.176 17.176 0 01-3.23-7.13A17.237 17.237 0 011.676 9.646 16.964 16.964 0 019.18 1.874 16.582 16.582 0 0116.685 0c1.718-.013 2.842 1.651 2.545 3.368-.297 1.717-1.938 2.805-3.643 3.015a10.59 10.59 0 00-3.59 1.1 10.715 10.715 0 00-4.729 4.902 10.923 10.923 0 00-.852 6.802 10.733 10.733 0 001.382 3.538c.917 1.494 1.085 3.473-.052 4.771z" fill="url(#paint0_linear_3146_13960)"/><path d="M13.018 3.695C12.54 2.031 13.496.25 15.2.078a16.782 16.782 0 014.921.25 16.682 16.682 0 017.234 3.42 17.182 17.182 0 014.87 6.422 17.388 17.388 0 011.408 7.968 17.22 17.22 0 01-2.377 7.732 17.1 17.1 0 01-5.619 5.754 16.716 16.716 0 01-7.595 2.477 16.784 16.784 0 01-4.922-.38c-1.666-.38-2.402-2.268-1.718-3.867.685-1.598 2.52-2.28 4.224-2.083a9.953 9.953 0 001.976.039 10.432 10.432 0 004.793-1.56 10.738 10.738 0 003.54-3.63 10.805 10.805 0 001.498-4.875 10.88 10.88 0 00-.892-5.033 10.82 10.82 0 00-3.074-4.05 10.67 10.67 0 00-4.56-2.162 10.976 10.976 0 00-1.963-.21c-1.718-.013-3.45-.917-3.927-2.595z" fill="url(#paint1_linear_3146_13960)"/><g opacity=".2"><path d="M9.19 25.753c-.957 1.088-2.623 1.206-3.501.053a14.514 14.514 0 01-2.907-7.575c-.297-3.67.801-7.3 3.074-10.17 2.274-2.857 5.542-4.731 9.12-5.203a13.788 13.788 0 017.906 1.284c1.291.63 1.537 2.307.697 3.473-.852 1.18-2.48 1.39-3.836.904a8.841 8.841 0 00-4.095-.432 8.799 8.799 0 00-5.748 3.29 9.098 9.098 0 00-1.938 6.408 9.223 9.223 0 001.292 3.997c.749 1.232.891 2.884-.065 3.971z" fill="url(#paint2_linear_3146_13960)"/><path d="M5.972 13.092c-1.356-.498-2.08-2.018-1.343-3.29a14.162 14.162 0 015.451-5.346 13.982 13.982 0 019.972-1.35 14.146 14.146 0 018.32 5.74 14.442 14.442 0 012.44 9.895 14.391 14.391 0 01-4.675 9.03 14.062 14.062 0 01-9.417 3.578 14.014 14.014 0 01-9.391-3.696 14.248 14.248 0 01-4.043-6.514c-.414-1.402.646-2.713 2.08-2.87 1.433-.157 2.673.93 3.242 2.267a8.928 8.928 0 002.234 3.185 8.772 8.772 0 005.917 2.333A8.809 8.809 0 0022.7 23.8a9.144 9.144 0 002.958-5.701 9.105 9.105 0 00-1.538-6.239 8.91 8.91 0 00-5.244-3.617 8.766 8.766 0 00-6.29.852 8.872 8.872 0 00-2.933 2.569c-.866 1.166-2.325 1.926-3.682 1.428z" fill="url(#paint3_linear_3146_13960)"/></g><path d="M138.52 7.275h4.477v19.588h-4.477V7.275zm-6.568 19.588l-.979-3.078h-7.276l-.98 3.078h-4.897l6.66-19.588h5.709l6.66 19.588h-4.897zm-6.912-7.275h4.589l-2.294-7.192-2.295 7.192zm-7.228 7.275h-4.813l-2.602-3.694-2.603 3.694h-4.813l5.009-7.107-4.841-6.885h4.813l2.435 3.47 2.434-3.47h4.814l-4.842 6.885 5.009 7.107zm-24.928-5.317c.485 1.306 1.605 1.96 3.358 1.96 1.138 0 2.034-.355 2.687-1.064l3.358 1.93c-1.381 1.922-3.414 2.883-6.1 2.883-2.351 0-4.236-.7-5.653-2.099-1.4-1.399-2.1-3.162-2.1-5.289 0-2.108.691-3.861 2.072-5.26 1.399-1.418 3.19-2.127 5.373-2.127 2.033 0 3.721.708 5.065 2.126 1.361 1.4 2.042 3.153 2.042 5.261 0 .597-.056 1.157-.167 1.68h-9.935zm-.084-3.134h6.017c-.41-1.474-1.4-2.21-2.966-2.21-1.624 0-2.64.736-3.05 2.21zM80.948 12.48c1.604 0 2.892.531 3.862 1.595.97 1.044 1.455 2.444 1.455 4.197v8.591h-4.198v-8.227c0-.709-.177-1.268-.531-1.679-.336-.41-.83-.616-1.484-.616-.69 0-1.23.234-1.623.7-.373.466-.56 1.11-.56 1.93v7.892h-4.197v-8.227c0-.709-.177-1.268-.532-1.679-.335-.41-.83-.616-1.483-.616-.69 0-1.231.234-1.623.7-.373.466-.56 1.11-.56 1.93v7.892h-4.197V12.871h4.198v1.288c.764-1.12 2.014-1.68 3.75-1.68 1.622 0 2.844.616 3.665 1.848.858-1.232 2.211-1.847 4.058-1.847zM59.93 24.317c-1.978 1.959-4.385 2.938-7.22 2.938-2.836 0-5.243-.98-7.22-2.938-1.978-1.959-2.967-4.375-2.967-7.248s.99-5.289 2.967-7.248c1.977-1.959 4.384-2.938 7.22-2.938 2.835 0 5.242.98 7.22 2.938 1.977 1.959 2.966 4.375 2.966 7.248s-.989 5.289-2.967 7.248zm-11.306-3.05c1.1 1.082 2.462 1.623 4.086 1.623 1.623 0 2.975-.541 4.057-1.623 1.101-1.082 1.651-2.482 1.651-4.198 0-1.716-.55-3.116-1.65-4.198-1.083-1.082-2.435-1.623-4.058-1.623-1.623 0-2.985.541-4.086 1.623-1.082 1.082-1.623 2.482-1.623 4.198 0 1.716.54 3.116 1.623 4.198z" fill="#E1E7EB"/><defs><linearGradient id="paint0_linear_3146_13960" x1="9.645" y1=".001" x2="9.645" y2="34.136" gradientUnits="userSpaceOnUse"><stop stop-color="#68E1FC"/><stop offset="1" stop-color="#DBFFFF" stop-opacity=".5"/></linearGradient><linearGradient id="paint1_linear_3146_13960" x1="16.965" y1="34.762" x2="25.908" y2="1.865" gradientUnits="userSpaceOnUse"><stop stop-color="#68E1FC"/><stop offset="1" stop-color="#DBFFFF" stop-opacity=".5"/></linearGradient><linearGradient id="paint2_linear_3146_13960" x1="13.402" y1="2.737" x2="13.402" y2="31.342" gradientUnits="userSpaceOnUse"><stop stop-color="#DBFFFF"/><stop offset="1" stop-color="#68E1FC"/></linearGradient><linearGradient id="paint3_linear_3146_13960" x1="13.354" y1="30.918" x2="20.855" y2="3.325" gradientUnits="userSpaceOnUse"><stop stop-color="#DBFFFF"/><stop offset="1" stop-color="#68E1FC"/></linearGradient></defs></svg>