<svg width="24" height="24" fill="none" xmlns="http://www.w3.org/2000/svg"><path d="M8.004 9.418a1 1 0 111.414-1.414l2.588 2.588 2.585-2.585a1 1 0 111.414 1.414l-2.585 2.585 2.584 2.584a1 1 0 01-1.414 1.414l-2.584-2.584-2.585 2.585a1 1 0 01-1.414-1.414l2.585-2.585-2.588-2.588z" fill="#D9D9D9"/><path fill-rule="evenodd" clip-rule="evenodd" d="M23 12c0 6.075-4.925 11-11 11S1 18.075 1 12 5.925 1 12 1s11 4.925 11 11zM3.007 12a8.993 8.993 0 1017.986 0 8.993 8.993 0 00-17.986 0z" fill="#D9D9D9"/></svg>