<svg width="23" height="13" fill="none" xmlns="http://www.w3.org/2000/svg"><mask id="mask0_12_932" style="mask-type:luminance" maskUnits="userSpaceOnUse" x="0" y="0" width="23" height="13"><path d="M22.286 0H0v13h22.286V0z" fill="#fff"/></mask><g mask="url(#mask0_12_932)"><path d="M22.286 12.005H0V13h22.286v-.995z" fill="#CB001C"/></g><mask id="mask1_12_932" style="mask-type:luminance" maskUnits="userSpaceOnUse" x="0" y="0" width="23" height="13"><path d="M22.286 0H0v13h22.286V0z" fill="#fff"/></mask><g mask="url(#mask1_12_932)"><path d="M22.286 11.01H0v.995h22.286v-.995z" fill="#fff"/></g><mask id="mask2_12_932" style="mask-type:luminance" maskUnits="userSpaceOnUse" x="0" y="0" width="23" height="13"><path d="M22.286 0H0v13h22.286V0z" fill="#fff"/></mask><g mask="url(#mask2_12_932)"><path d="M22.286 10.015H0v.995h22.286v-.995z" fill="#CB001C"/></g><mask id="mask3_12_932" style="mask-type:luminance" maskUnits="userSpaceOnUse" x="0" y="0" width="23" height="13"><path d="M22.286 0H0v13h22.286V0z" fill="#fff"/></mask><g mask="url(#mask3_12_932)"><path d="M22.286 9.02H0v.995h22.286V9.02z" fill="#fff"/></g><mask id="mask4_12_932" style="mask-type:luminance" maskUnits="userSpaceOnUse" x="0" y="0" width="23" height="13"><path d="M22.286 0H0v13h22.286V0z" fill="#fff"/></mask><g mask="url(#mask4_12_932)"><path d="M22.286 7.96H0v.994h22.286V7.96z" fill="#CB001C"/></g><mask id="mask5_12_932" style="mask-type:luminance" maskUnits="userSpaceOnUse" x="0" y="0" width="23" height="13"><path d="M22.286 0H0v13h22.286V0z" fill="#fff"/></mask><g mask="url(#mask5_12_932)"><path d="M22.286 6.964H0v.995h22.286v-.995z" fill="#fff"/></g><mask id="mask6_12_932" style="mask-type:luminance" maskUnits="userSpaceOnUse" x="0" y="0" width="23" height="13"><path d="M22.286 0H0v13h22.286V0z" fill="#fff"/></mask><g mask="url(#mask6_12_932)"><path d="M22.286 5.97H0v.994h22.286V5.97z" fill="#CB001C"/></g><mask id="mask7_12_932" style="mask-type:luminance" maskUnits="userSpaceOnUse" x="0" y="0" width="23" height="13"><path d="M22.286 0H0v13h22.286V0z" fill="#fff"/></mask><g mask="url(#mask7_12_932)"><path d="M22.286 4.974H0v.995h22.286v-.995z" fill="#fff"/></g><mask id="mask8_12_932" style="mask-type:luminance" maskUnits="userSpaceOnUse" x="0" y="0" width="23" height="13"><path d="M22.286 0H0v13h22.286V0z" fill="#fff"/></mask><g mask="url(#mask8_12_932)"><path d="M22.286 3.98H0v.995h22.286V3.98z" fill="#CB001C"/></g><mask id="mask9_12_932" style="mask-type:luminance" maskUnits="userSpaceOnUse" x="0" y="0" width="23" height="13"><path d="M22.286 0H0v13h22.286V0z" fill="#fff"/></mask><g mask="url(#mask9_12_932)"><path d="M22.286 2.985H0v.995h22.286v-.995z" fill="#fff"/></g><mask id="mask10_12_932" style="mask-type:luminance" maskUnits="userSpaceOnUse" x="0" y="0" width="23" height="13"><path d="M22.286 0H0v13h22.286V0z" fill="#fff"/></mask><g mask="url(#mask10_12_932)"><path d="M22.286 1.99H0v.995h22.286V1.99z" fill="#CB001C"/></g><mask id="mask11_12_932" style="mask-type:luminance" maskUnits="userSpaceOnUse" x="0" y="0" width="23" height="13"><path d="M22.286 0H0v13h22.286V0z" fill="#fff"/></mask><g mask="url(#mask11_12_932)"><path d="M22.286.995H0v.995h22.286V.995z" fill="#fff"/></g><mask id="mask12_12_932" style="mask-type:luminance" maskUnits="userSpaceOnUse" x="0" y="0" width="23" height="13"><path d="M22.286 0H0v13h22.286V0z" fill="#fff"/></mask><g mask="url(#mask12_12_932)"><path d="M22.286 0H0v.995h22.286V0z" fill="#CB001C"/></g><mask id="mask13_12_932" style="mask-type:luminance" maskUnits="userSpaceOnUse" x="0" y="0" width="23" height="13"><path d="M22.286 0H0v13h22.286V0z" fill="#fff"/></mask><g mask="url(#mask13_12_932)"><path d="M10.148 0H0v6.964h10.148V0z" fill="#2A3560"/></g><mask id="mask14_12_932" style="mask-type:luminance" maskUnits="userSpaceOnUse" x="0" y="0" width="23" height="13"><path d="M22.286 0H0v13h22.286V0z" fill="#fff"/></mask><g mask="url(#mask14_12_932)"><path d="M.928.796l.067.265h.265l-.199.133.066.265-.199-.132-.265.132.133-.265L.53 1.06h.331L.928.796z" fill="#fff"/></g><mask id="mask15_12_932" style="mask-type:luminance" maskUnits="userSpaceOnUse" x="0" y="0" width="23" height="13"><path d="M22.286 0H0v13h22.286V0z" fill="#fff"/></mask><g mask="url(#mask15_12_932)"><path d="M.928 1.923l.067.266h.265l-.199.199.066.265-.199-.199-.265.199.133-.265-.265-.2h.331l.066-.265z" fill="#fff"/></g><mask id="mask16_12_932" style="mask-type:luminance" maskUnits="userSpaceOnUse" x="0" y="0" width="23" height="13"><path d="M22.286 0H0v13h22.286V0z" fill="#fff"/></mask><g mask="url(#mask16_12_932)"><path d="M.928 3.117l.067.266h.265l-.199.132.066.266-.199-.133-.265.133.133-.266-.265-.132h.331l.066-.266z" fill="#fff"/></g><mask id="mask17_12_932" style="mask-type:luminance" maskUnits="userSpaceOnUse" x="0" y="0" width="23" height="13"><path d="M22.286 0H0v13h22.286V0z" fill="#fff"/></mask><g mask="url(#mask17_12_932)"><path d="M.928 4.245l.067.265h.265l-.199.2.066.264-.199-.199-.265.2.133-.266L.53 4.51h.331l.066-.265z" fill="#fff"/></g><mask id="mask18_12_932" style="mask-type:luminance" maskUnits="userSpaceOnUse" x="0" y="0" width="23" height="13"><path d="M22.286 0H0v13h22.286V0z" fill="#fff"/></mask><g mask="url(#mask18_12_932)"><path d="M.928 5.439l.067.265h.265l-.199.133.066.265-.199-.133-.265.133.133-.265-.265-.133h.331l.066-.265z" fill="#fff"/></g><mask id="mask19_12_932" style="mask-type:luminance" maskUnits="userSpaceOnUse" x="0" y="0" width="23" height="13"><path d="M22.286 0H0v13h22.286V0z" fill="#fff"/></mask><g mask="url(#mask19_12_932)"><path d="M1.724 1.393l.067.265h.331l-.265.133.066.265-.199-.133-.199.133.067-.265-.2-.133h.266l.066-.265z" fill="#fff"/></g><mask id="mask20_12_932" style="mask-type:luminance" maskUnits="userSpaceOnUse" x="0" y="0" width="23" height="13"><path d="M22.286 0H0v13h22.286V0z" fill="#fff"/></mask><g mask="url(#mask20_12_932)"><path d="M1.724 2.52l.067.266h.331l-.265.199.066.265-.199-.199-.199.199.067-.265-.2-.2h.266l.066-.265z" fill="#fff"/></g><mask id="mask21_12_932" style="mask-type:luminance" maskUnits="userSpaceOnUse" x="0" y="0" width="23" height="13"><path d="M22.286 0H0v13h22.286V0z" fill="#fff"/></mask><g mask="url(#mask21_12_932)"><path d="M1.724 3.714l.067.266h.331l-.265.199.066.265-.199-.2-.199.2.067-.265-.2-.2h.266l.066-.265z" fill="#fff"/></g><mask id="mask22_12_932" style="mask-type:luminance" maskUnits="userSpaceOnUse" x="0" y="0" width="23" height="13"><path d="M22.286 0H0v13h22.286V0z" fill="#fff"/></mask><g mask="url(#mask22_12_932)"><path d="M1.724 4.908l.067.266h.331l-.265.132.066.265-.199-.132-.199.132.067-.265-.2-.132h.266l.066-.266z" fill="#fff"/></g><mask id="mask23_12_932" style="mask-type:luminance" maskUnits="userSpaceOnUse" x="0" y="0" width="23" height="13"><path d="M22.286 0H0v13h22.286V0z" fill="#fff"/></mask><g mask="url(#mask23_12_932)"><path d="M2.52.796l.133.265h.265l-.199.133.067.265-.266-.132-.199.132.067-.265-.2-.133h.266L2.52.796z" fill="#fff"/></g><mask id="mask24_12_932" style="mask-type:luminance" maskUnits="userSpaceOnUse" x="0" y="0" width="23" height="13"><path d="M22.286 0H0v13h22.286V0z" fill="#fff"/></mask><g mask="url(#mask24_12_932)"><path d="M2.52 1.923l.133.266h.265l-.199.199.067.265-.266-.199-.199.199.067-.265-.2-.2h.266l.066-.265z" fill="#fff"/></g><mask id="mask25_12_932" style="mask-type:luminance" maskUnits="userSpaceOnUse" x="0" y="0" width="23" height="13"><path d="M22.286 0H0v13h22.286V0z" fill="#fff"/></mask><g mask="url(#mask25_12_932)"><path d="M2.52 3.117l.133.266h.265l-.199.132.067.266-.266-.133-.199.133.067-.266-.2-.132h.266l.066-.266z" fill="#fff"/></g><mask id="mask26_12_932" style="mask-type:luminance" maskUnits="userSpaceOnUse" x="0" y="0" width="23" height="13"><path d="M22.286 0H0v13h22.286V0z" fill="#fff"/></mask><g mask="url(#mask26_12_932)"><path d="M2.52 4.245l.133.265h.265l-.199.2.067.264-.266-.199-.199.2.067-.266-.2-.199h.266l.066-.265z" fill="#fff"/></g><mask id="mask27_12_932" style="mask-type:luminance" maskUnits="userSpaceOnUse" x="0" y="0" width="23" height="13"><path d="M22.286 0H0v13h22.286V0z" fill="#fff"/></mask><g mask="url(#mask27_12_932)"><path d="M2.52 5.439l.133.265h.265l-.199.133.067.265-.266-.133-.199.133.067-.265-.2-.133h.266l.066-.265z" fill="#fff"/></g><mask id="mask28_12_932" style="mask-type:luminance" maskUnits="userSpaceOnUse" x="0" y="0" width="23" height="13"><path d="M22.286 0H0v13h22.286V0z" fill="#fff"/></mask><g mask="url(#mask28_12_932)"><path d="M3.383 1.393l.066.265h.265l-.199.133.067.265-.2-.133-.265.133.133-.265-.265-.133h.265l.133-.265z" fill="#fff"/></g><mask id="mask29_12_932" style="mask-type:luminance" maskUnits="userSpaceOnUse" x="0" y="0" width="23" height="13"><path d="M22.286 0H0v13h22.286V0z" fill="#fff"/></mask><g mask="url(#mask29_12_932)"><path d="M3.383 2.52l.066.266h.265l-.199.199.067.265-.2-.199-.265.199.133-.265-.265-.2h.265l.133-.265z" fill="#fff"/></g><mask id="mask30_12_932" style="mask-type:luminance" maskUnits="userSpaceOnUse" x="0" y="0" width="23" height="13"><path d="M22.286 0H0v13h22.286V0z" fill="#fff"/></mask><g mask="url(#mask30_12_932)"><path d="M3.383 3.714l.066.266h.265l-.199.199.067.265-.2-.2-.265.2.133-.265-.265-.2h.265l.133-.265z" fill="#fff"/></g><mask id="mask31_12_932" style="mask-type:luminance" maskUnits="userSpaceOnUse" x="0" y="0" width="23" height="13"><path d="M22.286 0H0v13h22.286V0z" fill="#fff"/></mask><g mask="url(#mask31_12_932)"><path d="M3.383 4.908l.066.266h.265l-.199.132.067.265-.2-.132-.265.132.133-.265-.265-.132h.265l.133-.266z" fill="#fff"/></g><mask id="mask32_12_932" style="mask-type:luminance" maskUnits="userSpaceOnUse" x="0" y="0" width="23" height="13"><path d="M22.286 0H0v13h22.286V0z" fill="#fff"/></mask><g mask="url(#mask32_12_932)"><path d="M4.179.796l.066.265h.332l-.266.133.133.265-.265-.132-.2.132.067-.265-.2-.133h.266L4.18.796z" fill="#fff"/></g><mask id="mask33_12_932" style="mask-type:luminance" maskUnits="userSpaceOnUse" x="0" y="0" width="23" height="13"><path d="M22.286 0H0v13h22.286V0z" fill="#fff"/></mask><g mask="url(#mask33_12_932)"><path d="M4.179 1.923l.066.266h.332l-.266.199.133.265-.265-.199-.2.199.067-.265-.2-.2h.266l.067-.265z" fill="#fff"/></g><mask id="mask34_12_932" style="mask-type:luminance" maskUnits="userSpaceOnUse" x="0" y="0" width="23" height="13"><path d="M22.286 0H0v13h22.286V0z" fill="#fff"/></mask><g mask="url(#mask34_12_932)"><path d="M4.179 3.117l.066.266h.332l-.266.132.133.266-.265-.133-.2.133.067-.266-.2-.132h.266l.067-.266z" fill="#fff"/></g><mask id="mask35_12_932" style="mask-type:luminance" maskUnits="userSpaceOnUse" x="0" y="0" width="23" height="13"><path d="M22.286 0H0v13h22.286V0z" fill="#fff"/></mask><g mask="url(#mask35_12_932)"><path d="M4.179 4.245l.066.265h.332l-.266.2.133.264-.265-.199-.2.2.067-.266-.2-.199h.266l.067-.265z" fill="#fff"/></g><mask id="mask36_12_932" style="mask-type:luminance" maskUnits="userSpaceOnUse" x="0" y="0" width="23" height="13"><path d="M22.286 0H0v13h22.286V0z" fill="#fff"/></mask><g mask="url(#mask36_12_932)"><path d="M4.179 5.439l.066.265h.332l-.266.133.133.265-.265-.133-.2.133.067-.265-.2-.133h.266l.067-.265z" fill="#fff"/></g><mask id="mask37_12_932" style="mask-type:luminance" maskUnits="userSpaceOnUse" x="0" y="0" width="23" height="13"><path d="M22.286 0H0v13h22.286V0z" fill="#fff"/></mask><g mask="url(#mask37_12_932)"><path d="M4.974 1.393l.133.265h.265l-.199.133.067.265-.266-.133-.199.133.067-.265-.2-.133h.266l.066-.265z" fill="#fff"/></g><mask id="mask38_12_932" style="mask-type:luminance" maskUnits="userSpaceOnUse" x="0" y="0" width="23" height="13"><path d="M22.286 0H0v13h22.286V0z" fill="#fff"/></mask><g mask="url(#mask38_12_932)"><path d="M4.974 2.52l.133.266h.265l-.199.199.067.265-.266-.199-.199.199.067-.265-.2-.2h.266l.066-.265z" fill="#fff"/></g><mask id="mask39_12_932" style="mask-type:luminance" maskUnits="userSpaceOnUse" x="0" y="0" width="23" height="13"><path d="M22.286 0H0v13h22.286V0z" fill="#fff"/></mask><g mask="url(#mask39_12_932)"><path d="M4.974 3.714l.133.266h.265l-.199.199.067.265-.266-.2-.199.2.067-.265-.2-.2h.266l.066-.265z" fill="#fff"/></g><mask id="mask40_12_932" style="mask-type:luminance" maskUnits="userSpaceOnUse" x="0" y="0" width="23" height="13"><path d="M22.286 0H0v13h22.286V0z" fill="#fff"/></mask><g mask="url(#mask40_12_932)"><path d="M4.974 4.908l.133.266h.265l-.199.132.067.265-.266-.132-.199.132.067-.265-.2-.132h.266l.066-.266z" fill="#fff"/></g><mask id="mask41_12_932" style="mask-type:luminance" maskUnits="userSpaceOnUse" x="0" y="0" width="23" height="13"><path d="M22.286 0H0v13h22.286V0z" fill="#fff"/></mask><g mask="url(#mask41_12_932)"><path d="M5.837.796l.066.265h.265l-.199.133.067.265-.2-.132-.265.132.133-.265-.265-.133h.331l.067-.265z" fill="#fff"/></g><mask id="mask42_12_932" style="mask-type:luminance" maskUnits="userSpaceOnUse" x="0" y="0" width="23" height="13"><path d="M22.286 0H0v13h22.286V0z" fill="#fff"/></mask><g mask="url(#mask42_12_932)"><path d="M5.837 1.923l.066.266h.265l-.199.199.067.265-.2-.199-.265.199.133-.265-.265-.2h.331l.067-.265z" fill="#fff"/></g><mask id="mask43_12_932" style="mask-type:luminance" maskUnits="userSpaceOnUse" x="0" y="0" width="23" height="13"><path d="M22.286 0H0v13h22.286V0z" fill="#fff"/></mask><g mask="url(#mask43_12_932)"><path d="M5.837 3.117l.066.266h.265l-.199.132.067.266-.2-.133-.265.133.133-.266-.265-.132h.331l.067-.266z" fill="#fff"/></g><mask id="mask44_12_932" style="mask-type:luminance" maskUnits="userSpaceOnUse" x="0" y="0" width="23" height="13"><path d="M22.286 0H0v13h22.286V0z" fill="#fff"/></mask><g mask="url(#mask44_12_932)"><path d="M5.837 4.245l.066.265h.265l-.199.2.067.264-.2-.199-.265.2.133-.266-.265-.199h.331l.067-.265z" fill="#fff"/></g><mask id="mask45_12_932" style="mask-type:luminance" maskUnits="userSpaceOnUse" x="0" y="0" width="23" height="13"><path d="M22.286 0H0v13h22.286V0z" fill="#fff"/></mask><g mask="url(#mask45_12_932)"><path d="M5.837 5.439l.066.265h.265l-.199.133.067.265-.2-.133-.265.133.133-.265-.265-.133h.331l.067-.265z" fill="#fff"/></g><mask id="mask46_12_932" style="mask-type:luminance" maskUnits="userSpaceOnUse" x="0" y="0" width="23" height="13"><path d="M22.286 0H0v13h22.286V0z" fill="#fff"/></mask><g mask="url(#mask46_12_932)"><path d="M6.633 1.393l.066.265h.332l-.266.133.067.265-.2-.133-.198.133.066-.265-.199-.133h.265l.067-.265z" fill="#fff"/></g><mask id="mask47_12_932" style="mask-type:luminance" maskUnits="userSpaceOnUse" x="0" y="0" width="23" height="13"><path d="M22.286 0H0v13h22.286V0z" fill="#fff"/></mask><g mask="url(#mask47_12_932)"><path d="M6.633 2.52l.066.266h.332l-.266.199.067.265-.2-.199-.198.199.066-.265-.199-.2h.265l.067-.265z" fill="#fff"/></g><mask id="mask48_12_932" style="mask-type:luminance" maskUnits="userSpaceOnUse" x="0" y="0" width="23" height="13"><path d="M22.286 0H0v13h22.286V0z" fill="#fff"/></mask><g mask="url(#mask48_12_932)"><path d="M6.633 3.714l.066.266h.332l-.266.199.067.265-.2-.2-.198.2.066-.265-.199-.2h.265l.067-.265z" fill="#fff"/></g><mask id="mask49_12_932" style="mask-type:luminance" maskUnits="userSpaceOnUse" x="0" y="0" width="23" height="13"><path d="M22.286 0H0v13h22.286V0z" fill="#fff"/></mask><g mask="url(#mask49_12_932)"><path d="M6.633 4.908l.066.266h.332l-.266.132.067.265-.2-.132-.198.132.066-.265-.199-.132h.265l.067-.266z" fill="#fff"/></g><mask id="mask50_12_932" style="mask-type:luminance" maskUnits="userSpaceOnUse" x="0" y="0" width="23" height="13"><path d="M22.286 0H0v13h22.286V0z" fill="#fff"/></mask><g mask="url(#mask50_12_932)"><path d="M7.495.796l.066.265h.266l-.2.133.067.265-.2-.132-.264.132.066-.265-.2-.133h.266l.133-.265z" fill="#fff"/></g><mask id="mask51_12_932" style="mask-type:luminance" maskUnits="userSpaceOnUse" x="0" y="0" width="23" height="13"><path d="M22.286 0H0v13h22.286V0z" fill="#fff"/></mask><g mask="url(#mask51_12_932)"><path d="M7.495 1.923l.066.266h.266l-.2.199.067.265-.2-.199-.264.199.066-.265-.2-.2h.266l.133-.265z" fill="#fff"/></g><mask id="mask52_12_932" style="mask-type:luminance" maskUnits="userSpaceOnUse" x="0" y="0" width="23" height="13"><path d="M22.286 0H0v13h22.286V0z" fill="#fff"/></mask><g mask="url(#mask52_12_932)"><path d="M7.495 3.117l.066.266h.266l-.2.132.067.266-.2-.133-.264.133.066-.266-.2-.132h.266l.133-.266z" fill="#fff"/></g><mask id="mask53_12_932" style="mask-type:luminance" maskUnits="userSpaceOnUse" x="0" y="0" width="23" height="13"><path d="M22.286 0H0v13h22.286V0z" fill="#fff"/></mask><g mask="url(#mask53_12_932)"><path d="M7.495 4.245l.066.265h.266l-.2.2.067.264-.2-.199-.264.2.066-.266-.2-.199h.266l.133-.265z" fill="#fff"/></g><mask id="mask54_12_932" style="mask-type:luminance" maskUnits="userSpaceOnUse" x="0" y="0" width="23" height="13"><path d="M22.286 0H0v13h22.286V0z" fill="#fff"/></mask><g mask="url(#mask54_12_932)"><path d="M7.495 5.439l.066.265h.266l-.2.133.067.265-.2-.133-.264.133.066-.265-.2-.133h.266l.133-.265z" fill="#fff"/></g><mask id="mask55_12_932" style="mask-type:luminance" maskUnits="userSpaceOnUse" x="0" y="0" width="23" height="13"><path d="M22.286 0H0v13h22.286V0z" fill="#fff"/></mask><g mask="url(#mask55_12_932)"><path d="M8.29 1.393l.067.265h.265l-.199.133.067.265-.2-.133-.265.133.133-.265-.265-.133h.265l.133-.265z" fill="#fff"/></g><mask id="mask56_12_932" style="mask-type:luminance" maskUnits="userSpaceOnUse" x="0" y="0" width="23" height="13"><path d="M22.286 0H0v13h22.286V0z" fill="#fff"/></mask><g mask="url(#mask56_12_932)"><path d="M8.29 2.52l.067.266h.265l-.199.199.067.265-.2-.199-.265.199.133-.265-.265-.2h.265l.133-.265z" fill="#fff"/></g><mask id="mask57_12_932" style="mask-type:luminance" maskUnits="userSpaceOnUse" x="0" y="0" width="23" height="13"><path d="M22.286 0H0v13h22.286V0z" fill="#fff"/></mask><g mask="url(#mask57_12_932)"><path d="M8.29 3.714l.067.266h.265l-.199.199.067.265-.2-.2-.265.2.133-.265-.265-.2h.265l.133-.265z" fill="#fff"/></g><mask id="mask58_12_932" style="mask-type:luminance" maskUnits="userSpaceOnUse" x="0" y="0" width="23" height="13"><path d="M22.286 0H0v13h22.286V0z" fill="#fff"/></mask><g mask="url(#mask58_12_932)"><path d="M8.29 4.908l.067.266h.265l-.199.132.067.265-.2-.132-.265.132.133-.265-.265-.132h.265l.133-.266z" fill="#fff"/></g><mask id="mask59_12_932" style="mask-type:luminance" maskUnits="userSpaceOnUse" x="0" y="0" width="23" height="13"><path d="M22.286 0H0v13h22.286V0z" fill="#fff"/></mask><g mask="url(#mask59_12_932)"><path d="M9.087.796l.066.265h.332l-.266.133.133.265-.265-.132-.2.132.067-.265-.199-.133h.265l.067-.265z" fill="#fff"/></g><mask id="mask60_12_932" style="mask-type:luminance" maskUnits="userSpaceOnUse" x="0" y="0" width="23" height="13"><path d="M22.286 0H0v13h22.286V0z" fill="#fff"/></mask><g mask="url(#mask60_12_932)"><path d="M9.087 1.923l.066.266h.332l-.266.199.133.265-.265-.199-.2.199.067-.265-.199-.2h.265l.067-.265z" fill="#fff"/></g><mask id="mask61_12_932" style="mask-type:luminance" maskUnits="userSpaceOnUse" x="0" y="0" width="23" height="13"><path d="M22.286 0H0v13h22.286V0z" fill="#fff"/></mask><g mask="url(#mask61_12_932)"><path d="M9.087 3.117l.066.266h.332l-.266.132.133.266-.265-.133-.2.133.067-.266-.199-.132h.265l.067-.266z" fill="#fff"/></g><mask id="mask62_12_932" style="mask-type:luminance" maskUnits="userSpaceOnUse" x="0" y="0" width="23" height="13"><path d="M22.286 0H0v13h22.286V0z" fill="#fff"/></mask><g mask="url(#mask62_12_932)"><path d="M9.087 4.245l.066.265h.332l-.266.2.133.264-.265-.199-.2.2.067-.266-.199-.199h.265l.067-.265z" fill="#fff"/></g><mask id="mask63_12_932" style="mask-type:luminance" maskUnits="userSpaceOnUse" x="0" y="0" width="23" height="13"><path d="M22.286 0H0v13h22.286V0z" fill="#fff"/></mask><g mask="url(#mask63_12_932)"><path d="M9.087 5.439l.066.265h.332l-.266.133.133.265-.265-.133-.2.133.067-.265-.199-.133h.265l.067-.265z" fill="#fff"/></g></svg>