<svg width="23" height="13" fill="none" xmlns="http://www.w3.org/2000/svg"><mask id="mask0_12_3050" style="mask-type:luminance" maskUnits="userSpaceOnUse" x="0" y="0" width="23" height="13"><path d="M22.286 0H0v13h22.286V0z" fill="#fff"/></mask><g mask="url(#mask0_12_3050)"><path d="M22.286 0H0v13h22.286V0z" fill="#fff"/></g><mask id="mask1_12_3050" style="mask-type:luminance" maskUnits="userSpaceOnUse" x="0" y="0" width="23" height="13"><path d="M22.286 0H0v13h22.286V0z" fill="#fff"/></mask><g mask="url(#mask1_12_3050)"><path d="M6.5 0H0v13h6.5V0z" fill="#2530A9"/></g><mask id="mask2_12_3050" style="mask-type:luminance" maskUnits="userSpaceOnUse" x="0" y="0" width="23" height="13"><path d="M22.286 0H0v13h22.286V0z" fill="#fff"/></mask><g mask="url(#mask2_12_3050)"><path d="M22.286 6.5H0V13h22.286V6.5z" fill="#C22623"/></g><mask id="mask3_12_3050" style="mask-type:luminance" maskUnits="userSpaceOnUse" x="0" y="0" width="23" height="13"><path d="M22.286 0H0v13h22.286V0z" fill="#fff"/></mask><g mask="url(#mask3_12_3050)"><path d="M3.25 1.592l-.53 1.592.795.265-.265-1.857z" fill="#fff"/></g><mask id="mask4_12_3050" style="mask-type:luminance" maskUnits="userSpaceOnUse" x="0" y="0" width="23" height="13"><path d="M22.286 0H0v13h22.286V0z" fill="#fff"/></mask><g mask="url(#mask4_12_3050)"><path d="M3.25 1.592l.53 1.592-.795.265.265-1.857z" fill="#fff"/></g><mask id="mask5_12_3050" style="mask-type:luminance" maskUnits="userSpaceOnUse" x="0" y="0" width="23" height="13"><path d="M22.286 0H0v13h22.286V0z" fill="#fff"/></mask><g mask="url(#mask5_12_3050)"><path d="M4.775 2.72H3.184v.862l1.591-.863z" fill="#fff"/></g><mask id="mask6_12_3050" style="mask-type:luminance" maskUnits="userSpaceOnUse" x="0" y="0" width="23" height="13"><path d="M22.286 0H0v13h22.286V0z" fill="#fff"/></mask><g mask="url(#mask6_12_3050)"><path d="M4.775 2.72l-1.326.994-.464-.663 1.79-.332z" fill="#fff"/></g><mask id="mask7_12_3050" style="mask-type:luminance" maskUnits="userSpaceOnUse" x="0" y="0" width="23" height="13"><path d="M22.286 0H0v13h22.286V0z" fill="#fff"/></mask><g mask="url(#mask7_12_3050)"><path d="M1.725 2.72l1.326.994.464-.663-1.79-.332z" fill="#fff"/></g><mask id="mask8_12_3050" style="mask-type:luminance" maskUnits="userSpaceOnUse" x="0" y="0" width="23" height="13"><path d="M22.286 0H0v13h22.286V0z" fill="#fff"/></mask><g mask="url(#mask8_12_3050)"><path d="M1.725 2.72h1.591v.862l-1.591-.863z" fill="#fff"/></g><mask id="mask9_12_3050" style="mask-type:luminance" maskUnits="userSpaceOnUse" x="0" y="0" width="23" height="13"><path d="M22.286 0H0v13h22.286V0z" fill="#fff"/></mask><g mask="url(#mask9_12_3050)"><path d="M4.178 4.577l-.464-1.592-.796.265 1.26 1.327z" fill="#fff"/></g><mask id="mask10_12_3050" style="mask-type:luminance" maskUnits="userSpaceOnUse" x="0" y="0" width="23" height="13"><path d="M22.286 0H0v13h22.286V0z" fill="#fff"/></mask><g mask="url(#mask10_12_3050)"><path d="M4.178 4.577l-1.26-.995.464-.664.796 1.659z" fill="#fff"/></g><mask id="mask11_12_3050" style="mask-type:luminance" maskUnits="userSpaceOnUse" x="0" y="0" width="23" height="13"><path d="M22.286 0H0v13h22.286V0z" fill="#fff"/></mask><g mask="url(#mask11_12_3050)"><path d="M2.322 4.577l1.26-.995-.465-.664-.795 1.659z" fill="#fff"/></g><mask id="mask12_12_3050" style="mask-type:luminance" maskUnits="userSpaceOnUse" x="0" y="0" width="23" height="13"><path d="M22.286 0H0v13h22.286V0z" fill="#fff"/></mask><g mask="url(#mask12_12_3050)"><path d="M2.322 4.577l.464-1.592.796.265-1.26 1.327z" fill="#fff"/></g></svg>