<svg width="23" height="13" fill="none" xmlns="http://www.w3.org/2000/svg"><mask id="mask0_12_1250" style="mask-type:luminance" maskUnits="userSpaceOnUse" x="0" y="0" width="23" height="13"><path d="M22.286 0H0v13h22.286V0z" fill="#fff"/></mask><g mask="url(#mask0_12_1250)"><path d="M22.286 4.311H0v4.312h22.286V4.31z" fill="#fff"/></g><mask id="mask1_12_1250" style="mask-type:luminance" maskUnits="userSpaceOnUse" x="0" y="0" width="23" height="13"><path d="M22.286 0H0v13h22.286V0z" fill="#fff"/></mask><g mask="url(#mask1_12_1250)"><path d="M22.286 0H0v4.311h22.286V0z" fill="#80A7D8"/></g><mask id="mask2_12_1250" style="mask-type:luminance" maskUnits="userSpaceOnUse" x="0" y="0" width="23" height="13"><path d="M22.286 0H0v13h22.286V0z" fill="#fff"/></mask><g mask="url(#mask2_12_1250)"><path d="M22.286 8.689H0v4.31h22.286V8.69z" fill="#80A7D8"/></g><mask id="mask3_12_1250" style="mask-type:luminance" maskUnits="userSpaceOnUse" x="0" y="0" width="23" height="13"><path d="M22.286 0H0v13h22.286V0z" fill="#fff"/></mask><g mask="url(#mask3_12_1250)"><mask id="mask4_12_1250" style="mask-type:luminance" maskUnits="userSpaceOnUse" x="0" y="0" width="23" height="13"><path d="M22.286 0H0v13h22.286V0z" fill="#fff"/></mask><g mask="url(#mask4_12_1250)"><path d="M11.01 6.5l.067 1.79.066-1.79h-.133z" fill="#F1BD51"/></g><mask id="mask5_12_1250" style="mask-type:luminance" maskUnits="userSpaceOnUse" x="0" y="0" width="23" height="13"><path d="M22.286 0H0v13h22.286V0z" fill="#fff"/></mask><g mask="url(#mask5_12_1250)"><path d="M11.077 6.5l.066 1.194V6.5h-.066z" fill="#7A361D"/></g><mask id="mask6_12_1250" style="mask-type:luminance" maskUnits="userSpaceOnUse" x="0" y="0" width="23" height="13"><path d="M22.286 0H0v13h22.286V0z" fill="#fff"/></mask><g mask="url(#mask6_12_1250)"><path d="M10.944 7.03c-.133.2 0 .399-.133.598-.132.199-.066.331-.066.464 0 .066-.066.133-.066.133s.066 0 .132-.133c0-.133-.066-.2.067-.398.132-.265 0-.332.132-.53l-.066-.133z" fill="#F1BD51"/></g><mask id="mask7_12_1250" style="mask-type:luminance" maskUnits="userSpaceOnUse" x="0" y="0" width="23" height="13"><path d="M22.286 0H0v13h22.286V0z" fill="#fff"/></mask><g mask="url(#mask7_12_1250)"><path d="M10.745 8.224c0-.066.066-.066.066-.132v-.067c0-.066 0-.198.067-.331.066-.066.066-.2.066-.265 0-.067 0-.2.066-.332-.066.133-.066.199-.066.332 0 .066 0 .199-.066.265-.067.133-.067.265-.067.331v.067c0 .066-.066.066-.066.132l.133-.132v-.133c0-.066 0-.132.066-.331.066-.133.066-.2.066-.266s0-.199.067-.265c-.067.133-.067.199-.067.265 0 .067 0 .2-.066.266-.066.132-.066.265-.066.331v.133a.143.143 0 01-.133.132z" fill="#7A361D"/></g><mask id="mask8_12_1250" style="mask-type:luminance" maskUnits="userSpaceOnUse" x="0" y="0" width="23" height="13"><path d="M22.286 0H0v13h22.286V0z" fill="#fff"/></mask><g mask="url(#mask8_12_1250)"><path d="M11.01 7.097c-.066.199 0 .398-.133.53.133-.066.067-.265.133-.53z" fill="#7A361D"/></g><mask id="mask9_12_1250" style="mask-type:luminance" maskUnits="userSpaceOnUse" x="0" y="0" width="23" height="13"><path d="M22.286 0H0v13h22.286V0z" fill="#fff"/></mask><g mask="url(#mask9_12_1250)"><path d="M11.21 6.5l-.067-1.79-.066 1.79h.132z" fill="#F1BD51"/></g><mask id="mask10_12_1250" style="mask-type:luminance" maskUnits="userSpaceOnUse" x="0" y="0" width="23" height="13"><path d="M22.286 0H0v13h22.286V0z" fill="#fff"/></mask><g mask="url(#mask10_12_1250)"><path d="M11.143 6.5V5.306L11.077 6.5h.066z" fill="#7A361D"/></g><mask id="mask11_12_1250" style="mask-type:luminance" maskUnits="userSpaceOnUse" x="0" y="0" width="23" height="13"><path d="M22.286 0H0v13h22.286V0z" fill="#fff"/></mask><g mask="url(#mask11_12_1250)"><path d="M11.275 5.903c.133-.199 0-.398.133-.597.133-.199.066-.331.066-.464 0-.066.067-.133.067-.133s-.067 0-.133.133c0 .133.066.199-.066.398-.133.265 0 .331-.133.53l.066.133z" fill="#F1BD51"/></g><mask id="mask12_12_1250" style="mask-type:luminance" maskUnits="userSpaceOnUse" x="0" y="0" width="23" height="13"><path d="M22.286 0H0v13h22.286V0z" fill="#fff"/></mask><g mask="url(#mask12_12_1250)"><path d="M11.275 5.903c.067-.133.067-.199.067-.332 0-.132 0-.199.066-.265a.721.721 0 00.066-.331v-.067c0-.066 0-.066.067-.132-.067 0-.067.066-.133.132v.133c0 .066 0 .133-.066.331-.067.067-.067.133-.067.2 0-.067 0-.2.067-.266a.721.721 0 00.066-.331v-.133c0-.066.066-.133.133-.133v.067l-.067.066v.066c0 .067 0 .2-.066.332-.066.066-.066.199-.066.265 0 .2 0 .332-.067.398z" fill="#7A361D"/></g><mask id="mask13_12_1250" style="mask-type:luminance" maskUnits="userSpaceOnUse" x="0" y="0" width="23" height="13"><path d="M22.286 0H0v13h22.286V0z" fill="#fff"/></mask><g mask="url(#mask13_12_1250)"><path d="M11.143 6.434l-1.79.066 1.79.066v-.132z" fill="#F1BD51"/></g><mask id="mask14_12_1250" style="mask-type:luminance" maskUnits="userSpaceOnUse" x="0" y="0" width="23" height="13"><path d="M22.286 0H0v13h22.286V0z" fill="#fff"/></mask><g mask="url(#mask14_12_1250)"><path d="M11.143 6.434l-1.26.066 1.26.066v-.132z" fill="#7A361D"/></g><mask id="mask15_12_1250" style="mask-type:luminance" maskUnits="userSpaceOnUse" x="0" y="0" width="23" height="13"><path d="M22.286 0H0v13h22.286V0z" fill="#fff"/></mask><g mask="url(#mask15_12_1250)"><path d="M10.546 6.301c-.2-.133-.398 0-.597-.133-.199-.132-.332-.066-.464-.066-.067 0-.133-.066-.133-.066s0 .066.133.132c.132 0 .199-.066.398.067.265.132.331 0 .53.132l.133-.066z" fill="#F1BD51"/></g><mask id="mask16_12_1250" style="mask-type:luminance" maskUnits="userSpaceOnUse" x="0" y="0" width="23" height="13"><path d="M22.286 0H0v13h22.286V0z" fill="#fff"/></mask><g mask="url(#mask16_12_1250)"><path d="M10.48 6.434c-.133-.067-.2-.067-.266-.067s-.199 0-.265-.066c-.133-.066-.265-.066-.332-.066h-.132a.143.143 0 01-.133-.133h.066l.067.066h.066c.066 0 .199 0 .332.067.066.066.199.066.265.066s.199 0 .332.066c-.133-.066-.2-.066-.332-.066-.133 0-.199 0-.265-.066-.133-.067-.266-.067-.332-.067h-.066c-.067 0-.067 0-.133-.066 0 .066.066.066.133.133h.132c.067 0 .133 0 .332.066a.504.504 0 00.265.066c.133 0 .2 0 .266.067z" fill="#7A361D"/></g><mask id="mask17_12_1250" style="mask-type:luminance" maskUnits="userSpaceOnUse" x="0" y="0" width="23" height="13"><path d="M22.286 0H0v13h22.286V0z" fill="#fff"/></mask><g mask="url(#mask17_12_1250)"><path d="M11.143 6.566l1.79-.066-1.79-.066v.132z" fill="#F1BD51"/></g><mask id="mask18_12_1250" style="mask-type:luminance" maskUnits="userSpaceOnUse" x="0" y="0" width="23" height="13"><path d="M22.286 0H0v13h22.286V0z" fill="#fff"/></mask><g mask="url(#mask18_12_1250)"><path d="M11.143 6.566l1.194-.066-1.194-.066v.132z" fill="#7A361D"/></g><mask id="mask19_12_1250" style="mask-type:luminance" maskUnits="userSpaceOnUse" x="0" y="0" width="23" height="13"><path d="M22.286 0H0v13h22.286V0z" fill="#fff"/></mask><g mask="url(#mask19_12_1250)"><path d="M11.674 6.633c.199.132.398 0 .597.132.198.133.331.067.464.067.066 0 .133.066.133.066s0-.066-.133-.133c-.133 0-.2.067-.398-.066-.265-.133-.332 0-.53-.133l-.133.067z" fill="#F1BD51"/></g><mask id="mask20_12_1250" style="mask-type:luminance" maskUnits="userSpaceOnUse" x="0" y="0" width="23" height="13"><path d="M22.286 0H0v13h22.286V0z" fill="#fff"/></mask><g mask="url(#mask20_12_1250)"><path d="M12.867 6.898c-.066-.066-.066-.066-.132-.066h-.067c-.066 0-.198 0-.331-.067-.066-.066-.2-.066-.265-.066-.067 0-.2 0-.332-.066a.602.602 0 00.332.066c.132 0 .199 0 .265.066a.721.721 0 00.331.067h.067c.066 0 .066 0 .132.066a.143.143 0 00-.132-.133h-.133c-.066 0-.133 0-.332-.066-.066-.066-.132-.066-.265-.066.066 0 .2 0 .265.066a.721.721 0 00.332.066h.133c.132 0 .132.067.132.133z" fill="#7A361D"/></g><mask id="mask21_12_1250" style="mask-type:luminance" maskUnits="userSpaceOnUse" x="0" y="0" width="23" height="13"><path d="M22.286 0H0v13h22.286V0z" fill="#fff"/></mask><g mask="url(#mask21_12_1250)"><path d="M11.74 6.633c.199.066.398 0 .53.132-.066-.132-.265-.066-.53-.132z" fill="#7A361D"/></g><mask id="mask22_12_1250" style="mask-type:luminance" maskUnits="userSpaceOnUse" x="0" y="0" width="23" height="13"><path d="M22.286 0H0v13h22.286V0z" fill="#fff"/></mask><g mask="url(#mask22_12_1250)"><path d="M11.076 6.434L9.883 7.76v.067h.066l1.326-1.194-.199-.2z" fill="#F1BD51"/></g><mask id="mask23_12_1250" style="mask-type:luminance" maskUnits="userSpaceOnUse" x="0" y="0" width="23" height="13"><path d="M22.286 0H0v13h22.286V0z" fill="#fff"/></mask><g mask="url(#mask23_12_1250)"><path d="M11.077 6.434l-.796.928.862-.862-.066-.066z" fill="#7A361D"/></g><mask id="mask24_12_1250" style="mask-type:luminance" maskUnits="userSpaceOnUse" x="0" y="0" width="23" height="13"><path d="M22.286 0H0v13h22.286V0z" fill="#fff"/></mask><g mask="url(#mask24_12_1250)"><path d="M10.612 6.765c-.199.067-.265.266-.53.332-.2.066-.266.199-.332.265-.066.067-.133 0-.133.067 0 0 .067.066.2 0 .132-.067.132-.133.33-.266.266-.066.266-.199.531-.265l-.066-.133z" fill="#F1BD51"/></g><mask id="mask25_12_1250" style="mask-type:luminance" maskUnits="userSpaceOnUse" x="0" y="0" width="23" height="13"><path d="M22.286 0H0v13h22.286V0z" fill="#fff"/></mask><g mask="url(#mask25_12_1250)"><path d="M9.684 7.495c-.067-.066-.067-.066 0 0 0-.066.066-.066.066-.066l.066-.067c.067-.066.133-.199.266-.199a.911.911 0 00-.266.2l-.066.066s-.066 0-.066.066c-.067-.066-.067-.066 0 0 0 0 .066 0 .132-.066.067 0 .067-.067.067-.067a.916.916 0 01.265-.199c.133-.066.199-.066.265-.132.067-.067.133-.133.266-.133-.133.066-.2.066-.266.133-.066.066-.132.132-.265.132a.916.916 0 00-.265.2l-.067.066c-.066.066-.132.066-.132.066z" fill="#7A361D"/></g><mask id="mask26_12_1250" style="mask-type:luminance" maskUnits="userSpaceOnUse" x="0" y="0" width="23" height="13"><path d="M22.286 0H0v13h22.286V0z" fill="#fff"/></mask><g mask="url(#mask26_12_1250)"><path d="M10.612 6.832c-.199.132-.265.265-.464.331.133 0 .199-.199.464-.331z" fill="#7A361D"/></g><mask id="mask27_12_1250" style="mask-type:luminance" maskUnits="userSpaceOnUse" x="0" y="0" width="23" height="13"><path d="M22.286 0H0v13h22.286V0z" fill="#fff"/></mask><g mask="url(#mask27_12_1250)"><path d="M11.21 6.566l1.193-1.326v-.067h-.066L11.01 6.367l.2.2z" fill="#F1BD51"/></g><mask id="mask28_12_1250" style="mask-type:luminance" maskUnits="userSpaceOnUse" x="0" y="0" width="23" height="13"><path d="M22.286 0H0v13h22.286V0z" fill="#fff"/></mask><g mask="url(#mask28_12_1250)"><path d="M11.21 6.566l1.193-1.326h.066v.066l-1.26 1.26z" fill="#7A361D"/></g><mask id="mask29_12_1250" style="mask-type:luminance" maskUnits="userSpaceOnUse" x="0" y="0" width="23" height="13"><path d="M22.286 0H0v13h22.286V0z" fill="#fff"/></mask><g mask="url(#mask29_12_1250)"><path d="M11.143 6.5l.862-.862-.928.796.066.066z" fill="#7A361D"/></g><mask id="mask30_12_1250" style="mask-type:luminance" maskUnits="userSpaceOnUse" x="0" y="0" width="23" height="13"><path d="M22.286 0H0v13h22.286V0z" fill="#fff"/></mask><g mask="url(#mask30_12_1250)"><path d="M11.674 6.235c.199-.067.265-.266.53-.332.2-.066.265-.199.332-.265.066-.067.132 0 .132-.067 0 0-.066-.066-.199 0-.132.067-.132.133-.331.266-.265.066-.265.199-.53.265l.066.133z" fill="#F1BD51"/></g><mask id="mask31_12_1250" style="mask-type:luminance" maskUnits="userSpaceOnUse" x="0" y="0" width="23" height="13"><path d="M22.286 0H0v13h22.286V0z" fill="#fff"/></mask><g mask="url(#mask31_12_1250)"><path d="M11.674 6.235a.915.915 0 00.265-.2c.066-.066.133-.132.265-.132a.89.89 0 00.265-.199l.067-.066c0-.067.066-.067.066-.133h-.199c-.066 0-.066.066-.066.066a.933.933 0 01-.265.2l-.2.198c-.066.067-.132.133-.265.133.133-.066.2-.066.266-.133.066-.066.132-.132.265-.132a.916.916 0 00.265-.2l.066-.066c.067-.066.133-.066.2 0h-.067s-.066 0-.133.067l-.066.066c-.066.066-.133.2-.265.2-.133 0-.2.065-.265.132 0 .066-.133.132-.2.199z" fill="#7A361D"/></g><mask id="mask32_12_1250" style="mask-type:luminance" maskUnits="userSpaceOnUse" x="0" y="0" width="23" height="13"><path d="M22.286 0H0v13h22.286V0z" fill="#fff"/></mask><g mask="url(#mask32_12_1250)"><path d="M11.674 6.168c.199-.132.265-.265.464-.331-.2 0-.265.199-.464.331z" fill="#7A361D"/></g><mask id="mask33_12_1250" style="mask-type:luminance" maskUnits="userSpaceOnUse" x="0" y="0" width="23" height="13"><path d="M22.286 0H0v13h22.286V0z" fill="#fff"/></mask><g mask="url(#mask33_12_1250)"><path d="M11.209 6.434L9.882 5.24h-.066v.066l1.194 1.327.199-.2z" fill="#F1BD51"/></g><mask id="mask34_12_1250" style="mask-type:luminance" maskUnits="userSpaceOnUse" x="0" y="0" width="23" height="13"><path d="M22.286 0H0v13h22.286V0z" fill="#fff"/></mask><g mask="url(#mask34_12_1250)"><path d="M11.076 6.566L9.883 5.24v-.067l1.193 1.393z" fill="#7A361D"/></g><mask id="mask35_12_1250" style="mask-type:luminance" maskUnits="userSpaceOnUse" x="0" y="0" width="23" height="13"><path d="M22.286 0H0v13h22.286V0z" fill="#fff"/></mask><g mask="url(#mask35_12_1250)"><path d="M11.143 6.434l-.862-.796.796.862.066-.066z" fill="#7A361D"/></g><mask id="mask36_12_1250" style="mask-type:luminance" maskUnits="userSpaceOnUse" x="0" y="0" width="23" height="13"><path d="M22.286 0H0v13h22.286V0z" fill="#fff"/></mask><g mask="url(#mask36_12_1250)"><path d="M10.811 5.97c-.066-.2-.265-.266-.332-.531-.066-.2-.198-.266-.265-.332-.066-.066 0-.133-.066-.133 0 0-.066.067 0 .2.066.132.133.132.265.331.066.265.2.265.265.53l.133-.066z" fill="#F1BD51"/></g><mask id="mask37_12_1250" style="mask-type:luminance" maskUnits="userSpaceOnUse" x="0" y="0" width="23" height="13"><path d="M22.286 0H0v13h22.286V0z" fill="#fff"/></mask><g mask="url(#mask37_12_1250)"><path d="M10.745 6.036c-.066-.133-.066-.2-.133-.266-.066-.066-.132-.132-.132-.265-.067-.199-.133-.199-.2-.265l-.066-.067c-.066-.066-.066-.132 0-.199v.067s0 .066.067.132l.066.067c.066.066.2.132.2.265.065.133.065.2.132.265-.067-.066-.133-.132-.133-.265-.066-.133-.133-.199-.199-.265l-.066-.067c-.067-.066-.067-.066-.067-.132v.199c0 .066.067.066.067.066a.914.914 0 01.199.265c.066.133.066.2.132.266 0 0 .067.066.133.199z" fill="#7A361D"/></g><mask id="mask38_12_1250" style="mask-type:luminance" maskUnits="userSpaceOnUse" x="0" y="0" width="23" height="13"><path d="M22.286 0H0v13h22.286V0z" fill="#fff"/></mask><g mask="url(#mask38_12_1250)"><path d="M10.811 5.97c-.133-.2-.265-.266-.332-.465 0 .133.2.2.332.464z" fill="#7A361D"/></g><mask id="mask39_12_1250" style="mask-type:luminance" maskUnits="userSpaceOnUse" x="0" y="0" width="23" height="13"><path d="M22.286 0H0v13h22.286V0z" fill="#fff"/></mask><g mask="url(#mask39_12_1250)"><path d="M11.077 6.566l1.326 1.194h.066v-.066l-1.193-1.327-.2.2z" fill="#F1BD51"/></g><mask id="mask40_12_1250" style="mask-type:luminance" maskUnits="userSpaceOnUse" x="0" y="0" width="23" height="13"><path d="M22.286 0H0v13h22.286V0z" fill="#fff"/></mask><g mask="url(#mask40_12_1250)"><path d="M11.077 6.5l.928.862-.862-.928-.066.066z" fill="#7A361D"/></g><mask id="mask41_12_1250" style="mask-type:luminance" maskUnits="userSpaceOnUse" x="0" y="0" width="23" height="13"><path d="M22.286 0H0v13h22.286V0z" fill="#fff"/></mask><g mask="url(#mask41_12_1250)"><path d="M11.408 7.03c.067.2.266.266.332.531.066.2.199.265.265.332.067.066 0 .132.067.132 0 0 .066-.066 0-.199-.067-.132-.133-.132-.266-.331-.066-.265-.199-.265-.265-.53l-.133.066z" fill="#F1BD51"/></g><mask id="mask42_12_1250" style="mask-type:luminance" maskUnits="userSpaceOnUse" x="0" y="0" width="23" height="13"><path d="M22.286 0H0v13h22.286V0z" fill="#fff"/></mask><g mask="url(#mask42_12_1250)"><path d="M12.072 8.025c0-.066 0-.132-.067-.132l-.066-.067c-.066-.066-.199-.132-.199-.265a.916.916 0 00.199.265l.066.067c.067 0 .067.066.067.132 0-.066.066-.132 0-.199 0-.066-.067-.066-.067-.066a.914.914 0 01-.199-.265c-.066-.133-.066-.2-.132-.265-.067-.067-.133-.133-.133-.266.066.133.066.2.133.266.066.066.132.132.132.265a.914.914 0 00.2.265l.066.066c.066.067.066.133 0 .2z" fill="#7A361D"/></g><mask id="mask43_12_1250" style="mask-type:luminance" maskUnits="userSpaceOnUse" x="0" y="0" width="23" height="13"><path d="M22.286 0H0v13h22.286V0z" fill="#fff"/></mask><g mask="url(#mask43_12_1250)"><path d="M11.474 7.03c.133.2.266.266.332.465 0-.199-.199-.265-.332-.464z" fill="#7A361D"/></g><mask id="mask44_12_1250" style="mask-type:luminance" maskUnits="userSpaceOnUse" x="0" y="0" width="23" height="13"><path d="M22.286 0H0v13h22.286V0z" fill="#fff"/></mask><g mask="url(#mask44_12_1250)"><path d="M11.076 6.434l-.597 1.658v.066h.067l.73-1.592-.2-.132z" fill="#F1BD51"/></g><mask id="mask45_12_1250" style="mask-type:luminance" maskUnits="userSpaceOnUse" x="0" y="0" width="23" height="13"><path d="M22.286 0H0v13h22.286V0z" fill="#fff"/></mask><g mask="url(#mask45_12_1250)"><path d="M10.48 8.158c-.067 0-.067 0 0 0-.067-.066-.067 0 0 0z" fill="#7A361D"/></g><mask id="mask46_12_1250" style="mask-type:luminance" maskUnits="userSpaceOnUse" x="0" y="0" width="23" height="13"><path d="M22.286 0H0v13h22.286V0z" fill="#fff"/></mask><g mask="url(#mask46_12_1250)"><path d="M11.076 6.5l-.397 1.128.464-1.128h-.067z" fill="#7A361D"/></g><mask id="mask47_12_1250" style="mask-type:luminance" maskUnits="userSpaceOnUse" x="0" y="0" width="23" height="13"><path d="M22.286 0H0v13h22.286V0z" fill="#fff"/></mask><g mask="url(#mask47_12_1250)"><path d="M10.745 6.964c-.199.2-.199.398-.332.53-.199.134-.199.332-.199.399-.066.066-.132.066-.132.066s.066 0 .199-.066c.066-.067.066-.2.265-.332.2-.199.133-.331.332-.464l-.133-.133z" fill="#F1BD51"/></g><mask id="mask48_12_1250" style="mask-type:luminance" maskUnits="userSpaceOnUse" x="0" y="0" width="23" height="13"><path d="M22.286 0H0v13h22.286V0z" fill="#fff"/></mask><g mask="url(#mask48_12_1250)"><path d="M10.148 7.96c-.066 0-.066 0 0 0 0-.067.066-.067.066-.133V7.76c0-.066.067-.199.2-.331.066-.067.132-.133.132-.266.066-.066.066-.199.199-.265-.066.066-.133.199-.199.265-.066.067-.066.2-.133.266-.132.132-.132.199-.199.331v.067c0 .066-.066.132-.066.132-.066 0-.066 0 0 0 0 0 .066 0 .133-.132l.066-.067c0-.066.066-.132.199-.265.133-.066.133-.133.199-.265.066-.067.066-.133.199-.2-.066.067-.133.133-.133.2-.066.066-.066.132-.199.265-.132.133-.132.199-.199.265 0 .067 0 .067-.066.133-.133.066-.199.066-.199.066z" fill="#7A361D"/></g><mask id="mask49_12_1250" style="mask-type:luminance" maskUnits="userSpaceOnUse" x="0" y="0" width="23" height="13"><path d="M22.286 0H0v13h22.286V0z" fill="#fff"/></mask><g mask="url(#mask49_12_1250)"><path d="M10.745 7.03c-.133.2-.133.332-.331.465.198-.066.198-.265.331-.464z" fill="#7A361D"/></g><mask id="mask50_12_1250" style="mask-type:luminance" maskUnits="userSpaceOnUse" x="0" y="0" width="23" height="13"><path d="M22.286 0H0v13h22.286V0z" fill="#fff"/></mask><g mask="url(#mask50_12_1250)"><path d="M11.21 6.5l.596-1.658v-.066l-.73 1.591.133.133z" fill="#F1BD51"/></g><mask id="mask51_12_1250" style="mask-type:luminance" maskUnits="userSpaceOnUse" x="0" y="0" width="23" height="13"><path d="M22.286 0H0v13h22.286V0z" fill="#fff"/></mask><g mask="url(#mask51_12_1250)"><path d="M11.143 6.5l.464-1.128-.53 1.128h.066z" fill="#7A361D"/></g><mask id="mask52_12_1250" style="mask-type:luminance" maskUnits="userSpaceOnUse" x="0" y="0" width="23" height="13"><path d="M22.286 0H0v13h22.286V0z" fill="#fff"/></mask><g mask="url(#mask52_12_1250)"><path d="M11.475 6.036c.199-.2.199-.398.331-.53.2-.134.2-.333.2-.399.066-.066.132-.066.132-.133 0 0-.066 0-.2.067 0 .132 0 .265-.198.398-.199.132-.133.331-.332.464l.067.133z" fill="#F1BD51"/></g><mask id="mask53_12_1250" style="mask-type:luminance" maskUnits="userSpaceOnUse" x="0" y="0" width="23" height="13"><path d="M22.286 0H0v13h22.286V0z" fill="#fff"/></mask><g mask="url(#mask53_12_1250)"><path d="M11.475 6.036a.503.503 0 00.132-.266c.067-.066.067-.199.133-.265.199-.066.265-.199.265-.265v-.067c0-.066.066-.066.066-.066-.066 0-.132 0-.132.066l-.066.067c0 .066-.067.132-.2.265a.914.914 0 00-.198.265c-.067.067-.067.133-.2.2.067-.067.133-.133.133-.2.067-.066.067-.132.2-.265.264-.133.33-.265.33-.332 0-.066 0-.066.067-.132.066-.067.133-.133.133-.067 0 0-.067 0-.067.067v.066c0 .066-.066.2-.198.332-.067.066-.133.132-.133.265-.133.133-.133.265-.265.332z" fill="#7A361D"/></g><mask id="mask54_12_1250" style="mask-type:luminance" maskUnits="userSpaceOnUse" x="0" y="0" width="23" height="13"><path d="M22.286 0H0v13h22.286V0z" fill="#fff"/></mask><g mask="url(#mask54_12_1250)"><path d="M11.474 5.97c.133-.2.133-.332.332-.465-.133.066-.133.265-.332.464z" fill="#7A361D"/></g><mask id="mask55_12_1250" style="mask-type:luminance" maskUnits="userSpaceOnUse" x="0" y="0" width="23" height="13"><path d="M22.286 0H0v13h22.286V0z" fill="#fff"/></mask><g mask="url(#mask55_12_1250)"><path d="M11.143 6.434l-1.658-.597h-.067v.066l1.592.73.133-.2z" fill="#F1BD51"/></g><mask id="mask56_12_1250" style="mask-type:luminance" maskUnits="userSpaceOnUse" x="0" y="0" width="23" height="13"><path d="M22.286 0H0v13h22.286V0z" fill="#fff"/></mask><g mask="url(#mask56_12_1250)"><path d="M11.076 6.566l-1.591-.73s-.067 0 0-.066l1.591.796z" fill="#7A361D"/></g><mask id="mask57_12_1250" style="mask-type:luminance" maskUnits="userSpaceOnUse" x="0" y="0" width="23" height="13"><path d="M22.286 0H0v13h22.286V0z" fill="#fff"/></mask><g mask="url(#mask57_12_1250)"><path d="M11.143 6.434l-1.128-.398 1.128.464v-.066z" fill="#7A361D"/></g><mask id="mask58_12_1250" style="mask-type:luminance" maskUnits="userSpaceOnUse" x="0" y="0" width="23" height="13"><path d="M22.286 0H0v13h22.286V0z" fill="#fff"/></mask><g mask="url(#mask58_12_1250)"><path d="M10.678 6.102c-.198-.133-.397-.133-.53-.332s-.332-.199-.398-.199c-.066-.066-.066-.132-.133-.132 0 0 0 .066.067.199.066.066.199.066.331.265.2.199.332.133.465.332l.198-.133z" fill="#F1BD51"/></g><mask id="mask59_12_1250" style="mask-type:luminance" maskUnits="userSpaceOnUse" x="0" y="0" width="23" height="13"><path d="M22.286 0H0v13h22.286V0z" fill="#fff"/></mask><g mask="url(#mask59_12_1250)"><path d="M10.546 6.235c-.066-.067-.133-.133-.2-.133-.065-.066-.132-.066-.264-.199-.133-.133-.2-.133-.266-.199-.066 0-.066 0-.132-.066-.067-.067-.133-.133-.067-.133 0 0 0 .066.067.066h.066c.066 0 .199.067.332.2.066.066.132.132.265.132.133.066.265.133.332.2-.133-.067-.2-.134-.266-.134-.066-.066-.199-.066-.265-.132-.133-.133-.199-.133-.332-.2H9.75c-.066 0-.066-.066-.066-.066 0 .067 0 .133.066.133s.066.066.066.066c.067 0 .133.067.266.2.066.132.132.132.265.198.066-.066.133-.066.199.067z" fill="#7A361D"/></g><mask id="mask60_12_1250" style="mask-type:luminance" maskUnits="userSpaceOnUse" x="0" y="0" width="23" height="13"><path d="M22.286 0H0v13h22.286V0z" fill="#fff"/></mask><g mask="url(#mask60_12_1250)"><path d="M10.612 6.102c-.199-.133-.332-.133-.464-.265.066.132.265.132.464.265z" fill="#7A361D"/></g><mask id="mask61_12_1250" style="mask-type:luminance" maskUnits="userSpaceOnUse" x="0" y="0" width="23" height="13"><path d="M22.286 0H0v13h22.286V0z" fill="#fff"/></mask><g mask="url(#mask61_12_1250)"><path d="M11.077 6.566l1.658.597h.066l-1.592-.73-.132.133z" fill="#F1BD51"/></g><mask id="mask62_12_1250" style="mask-type:luminance" maskUnits="userSpaceOnUse" x="0" y="0" width="23" height="13"><path d="M22.286 0H0v13h22.286V0z" fill="#fff"/></mask><g mask="url(#mask62_12_1250)"><path d="M12.8 7.23c-.066-.067-.066 0 0 0-.066-.067 0-.067 0 0z" fill="#7A361D"/></g><mask id="mask63_12_1250" style="mask-type:luminance" maskUnits="userSpaceOnUse" x="0" y="0" width="23" height="13"><path d="M22.286 0H0v13h22.286V0z" fill="#fff"/></mask><g mask="url(#mask63_12_1250)"><path d="M11.143 6.5l1.127.464-1.127-.53V6.5z" fill="#7A361D"/></g><mask id="mask64_12_1250" style="mask-type:luminance" maskUnits="userSpaceOnUse" x="0" y="0" width="23" height="13"><path d="M22.286 0H0v13h22.286V0z" fill="#fff"/></mask><g mask="url(#mask64_12_1250)"><path d="M11.607 6.898c.2.199.398.199.53.332a.45.45 0 00.399.199c.066.066.066.132.132.132 0 0 0-.066-.066-.199-.066-.066-.199 0-.332-.265-.198-.2-.331-.133-.464-.332l-.199.133z" fill="#F1BD51"/></g><mask id="mask65_12_1250" style="mask-type:luminance" maskUnits="userSpaceOnUse" x="0" y="0" width="23" height="13"><path d="M22.286 0H0v13h22.286V0z" fill="#fff"/></mask><g mask="url(#mask65_12_1250)"><path d="M12.602 7.495c-.066-.066-.066-.066-.066-.133h-.067c-.066 0-.199-.066-.331-.199-.066-.066-.133-.132-.265-.132-.067-.067-.2-.067-.266-.2.067.067.2.133.266.2.066.066.199.066.265.132.132.133.199.133.331.2h.067c0 .066 0 .132.066.132 0-.066 0-.133-.066-.199-.067 0-.067-.066-.133-.066s-.133-.067-.265-.2c-.066-.132-.133-.132-.265-.198-.067-.067-.133-.067-.2-.2.067.067.133.133.2.133.066.067.132.067.265.2.132.132.199.132.265.198.066 0 .066 0 .133.067.066.199.066.265.066.265z" fill="#7A361D"/></g><mask id="mask66_12_1250" style="mask-type:luminance" maskUnits="userSpaceOnUse" x="0" y="0" width="23" height="13"><path d="M22.286 0H0v13h22.286V0z" fill="#fff"/></mask><g mask="url(#mask66_12_1250)"><path d="M11.674 6.832c.199.132.331.132.464.331-.066-.132-.265-.132-.464-.331z" fill="#7A361D"/></g><mask id="mask67_12_1250" style="mask-type:luminance" maskUnits="userSpaceOnUse" x="0" y="0" width="23" height="13"><path d="M22.286 0H0v13h22.286V0z" fill="#fff"/></mask><g mask="url(#mask67_12_1250)"><path d="M11.076 6.434l-1.591.73h.066l1.658-.598-.133-.132z" fill="#F1BD51"/></g><mask id="mask68_12_1250" style="mask-type:luminance" maskUnits="userSpaceOnUse" x="0" y="0" width="23" height="13"><path d="M22.286 0H0v13h22.286V0z" fill="#fff"/></mask><g mask="url(#mask68_12_1250)"><path d="M9.485 7.23c-.067-.067 0-.067 0 0z" fill="#7A361D"/></g><mask id="mask69_12_1250" style="mask-type:luminance" maskUnits="userSpaceOnUse" x="0" y="0" width="23" height="13"><path d="M22.286 0H0v13h22.286V0z" fill="#fff"/></mask><g mask="url(#mask69_12_1250)"><path d="M11.143 6.434l-1.128.53 1.128-.464v-.066z" fill="#7A361D"/></g><mask id="mask70_12_1250" style="mask-type:luminance" maskUnits="userSpaceOnUse" x="0" y="0" width="23" height="13"><path d="M22.286 0H0v13h22.286V0z" fill="#fff"/></mask><g mask="url(#mask70_12_1250)"><path d="M10.546 6.566c-.265 0-.398.133-.597.133-.199 0-.332.133-.398.133h-.133s.067.066.2.066c.132 0 .132-.133.397-.066.266 0 .332-.133.597-.067v-.199h-.066z" fill="#F1BD51"/></g><mask id="mask71_12_1250" style="mask-type:luminance" maskUnits="userSpaceOnUse" x="0" y="0" width="23" height="13"><path d="M22.286 0H0v13h22.286V0z" fill="#fff"/></mask><g mask="url(#mask71_12_1250)"><path d="M9.485 6.898c-.067 0-.133 0-.133-.066h.199s.066 0 .066-.067c.067-.066.2-.132.332-.066.133 0 .199 0 .265-.066.067-.067.2-.067.332-.067-.133 0-.2 0-.332.067-.066.066-.199.066-.265.066-.133 0-.265.066-.332.066-.066 0-.066.067-.132.133 0-.066-.067-.066-.067-.066s0 .066.067.066c.066 0 .132-.066.132-.066.067 0 .133-.067.332-.067.133 0 .199 0 .265-.066.067 0 .133-.066.266-.066-.133 0-.2 0-.266.066-.066 0-.132.066-.265.066-.199 0-.265 0-.332.067 0 0-.066 0-.132.066z" fill="#7A361D"/></g><mask id="mask72_12_1250" style="mask-type:luminance" maskUnits="userSpaceOnUse" x="0" y="0" width="23" height="13"><path d="M22.286 0H0v13h22.286V0z" fill="#fff"/></mask><g mask="url(#mask72_12_1250)"><path d="M10.48 6.633c-.266 0-.332.132-.531.132.133 0 .265-.132.53-.132z" fill="#7A361D"/></g><mask id="mask73_12_1250" style="mask-type:luminance" maskUnits="userSpaceOnUse" x="0" y="0" width="23" height="13"><path d="M22.286 0H0v13h22.286V0z" fill="#fff"/></mask><g mask="url(#mask73_12_1250)"><path d="M11.143 6.566l1.592-.73V5.77h-.067l-1.658.597.133.2z" fill="#F1BD51"/></g><mask id="mask74_12_1250" style="mask-type:luminance" maskUnits="userSpaceOnUse" x="0" y="0" width="23" height="13"><path d="M22.286 0H0v13h22.286V0z" fill="#fff"/></mask><g mask="url(#mask74_12_1250)"><path d="M11.143 6.566l1.592-.73h.066v.067l-1.658.663z" fill="#7A361D"/></g><mask id="mask75_12_1250" style="mask-type:luminance" maskUnits="userSpaceOnUse" x="0" y="0" width="23" height="13"><path d="M22.286 0H0v13h22.286V0z" fill="#fff"/></mask><g mask="url(#mask75_12_1250)"><path d="M11.143 6.5l1.127-.464-1.127.398V6.5z" fill="#7A361D"/></g><mask id="mask76_12_1250" style="mask-type:luminance" maskUnits="userSpaceOnUse" x="0" y="0" width="23" height="13"><path d="M22.286 0H0v13h22.286V0z" fill="#fff"/></mask><g mask="url(#mask76_12_1250)"><path d="M11.74 6.434c.265 0 .398-.133.597-.133.199 0 .332-.133.398-.133h.133s-.067-.066-.2-.066c-.132 0-.132.133-.397.066-.266 0-.332.133-.597.067v.199h.066z" fill="#F1BD51"/></g><mask id="mask77_12_1250" style="mask-type:luminance" maskUnits="userSpaceOnUse" x="0" y="0" width="23" height="13"><path d="M22.286 0H0v13h22.286V0z" fill="#fff"/></mask><g mask="url(#mask77_12_1250)"><path d="M11.74 6.434c.133 0 .199-.067.265-.067.066-.066.2-.066.265-.066.133 0 .266-.066.332-.066 0 0 .066 0 .066-.067h.133c0-.066-.066-.066-.199-.066-.066 0-.066 0-.133.066-.066 0-.132.067-.331.067-.133 0-.2 0-.265.066-.067 0-.133.066-.266.066.133 0 .2 0 .266-.066.066 0 .132-.066.265-.066.199 0 .265 0 .331-.067.067 0 .067 0 .133-.066.066 0 .133 0 .2.066h-.2s-.066 0-.066.067c-.067.066-.2.132-.332.066-.133 0-.199 0-.265.066 0 0-.066.067-.2.067z" fill="#7A361D"/></g><mask id="mask78_12_1250" style="mask-type:luminance" maskUnits="userSpaceOnUse" x="0" y="0" width="23" height="13"><path d="M22.286 0H0v13h22.286V0z" fill="#fff"/></mask><g mask="url(#mask78_12_1250)"><path d="M11.74 6.367c.265 0 .332-.132.53-.132-.132 0-.265.132-.53.132z" fill="#7A361D"/></g><mask id="mask79_12_1250" style="mask-type:luminance" maskUnits="userSpaceOnUse" x="0" y="0" width="23" height="13"><path d="M22.286 0H0v13h22.286V0z" fill="#fff"/></mask><g mask="url(#mask79_12_1250)"><path d="M11.21 6.434l-.73-1.592h-.066v.066l.596 1.658.2-.132z" fill="#F1BD51"/></g><mask id="mask80_12_1250" style="mask-type:luminance" maskUnits="userSpaceOnUse" x="0" y="0" width="23" height="13"><path d="M22.286 0H0v13h22.286V0z" fill="#fff"/></mask><g mask="url(#mask80_12_1250)"><path d="M11.076 6.5l-.597-1.658.73 1.592-.73-1.658.597 1.724z" fill="#7A361D"/></g><mask id="mask81_12_1250" style="mask-type:luminance" maskUnits="userSpaceOnUse" x="0" y="0" width="23" height="13"><path d="M22.286 0H0v13h22.286V0z" fill="#fff"/></mask><g mask="url(#mask81_12_1250)"><path d="M11.143 6.5l-.464-1.128.397 1.128h.067z" fill="#7A361D"/></g><mask id="mask82_12_1250" style="mask-type:luminance" maskUnits="userSpaceOnUse" x="0" y="0" width="23" height="13"><path d="M22.286 0H0v13h22.286V0z" fill="#fff"/></mask><g mask="url(#mask82_12_1250)"><path d="M11.077 5.903c0-.265-.133-.398-.133-.597 0-.199-.133-.332-.133-.398v-.132s-.066.066-.066.198c0 .133.133.133.066.398 0 .266.133.332.067.597l.199-.066z" fill="#F1BD51"/></g><mask id="mask83_12_1250" style="mask-type:luminance" maskUnits="userSpaceOnUse" x="0" y="0" width="23" height="13"><path d="M22.286 0H0v13h22.286V0z" fill="#fff"/></mask><g mask="url(#mask83_12_1250)"><path d="M11.077 5.903c0-.133-.067-.199-.067-.332-.066-.066-.066-.199-.066-.265 0-.133-.066-.265-.066-.332 0 0 0-.066-.067-.066v-.132c-.066 0-.066.066-.066.198 0 .067 0 .067.066.133 0 .066.067.133.067.332 0 .132 0 .199.066.265 0 .066.066.133.066.265 0-.132 0-.199-.066-.265 0-.066-.066-.133-.066-.265 0-.2 0-.266-.067-.332 0-.066 0-.066-.066-.133 0-.066 0-.132.066-.198v.198s0 .067.067.067c.066.066.132.199.066.331 0 .133 0 .2.066.266 0 .066.067.132.067.265z" fill="#7A361D"/></g><mask id="mask84_12_1250" style="mask-type:luminance" maskUnits="userSpaceOnUse" x="0" y="0" width="23" height="13"><path d="M22.286 0H0v13h22.286V0z" fill="#fff"/></mask><g mask="url(#mask84_12_1250)"><path d="M11.01 5.837c0-.266-.133-.332-.133-.53-.066.198.133.33.133.53z" fill="#7A361D"/></g><mask id="mask85_12_1250" style="mask-type:luminance" maskUnits="userSpaceOnUse" x="0" y="0" width="23" height="13"><path d="M22.286 0H0v13h22.286V0z" fill="#fff"/></mask><g mask="url(#mask85_12_1250)"><path d="M11.077 6.5l.73 1.592v-.067l-.598-1.658-.132.133z" fill="#F1BD51"/></g><mask id="mask86_12_1250" style="mask-type:luminance" maskUnits="userSpaceOnUse" x="0" y="0" width="23" height="13"><path d="M22.286 0H0v13h22.286V0z" fill="#fff"/></mask><g mask="url(#mask86_12_1250)"><path d="M11.077 6.5l.53 1.128-.464-1.128h-.066z" fill="#7A361D"/></g><mask id="mask87_12_1250" style="mask-type:luminance" maskUnits="userSpaceOnUse" x="0" y="0" width="23" height="13"><path d="M22.286 0H0v13h22.286V0z" fill="#fff"/></mask><g mask="url(#mask87_12_1250)"><path d="M11.21 7.097c0 .265.132.398.132.597 0 .199.132.332.132.398v.133s.067-.067.067-.2c0-.132-.133-.132-.067-.397 0-.266-.132-.332-.066-.597l-.199.066z" fill="#F1BD51"/></g><mask id="mask88_12_1250" style="mask-type:luminance" maskUnits="userSpaceOnUse" x="0" y="0" width="23" height="13"><path d="M22.286 0H0v13h22.286V0z" fill="#fff"/></mask><g mask="url(#mask88_12_1250)"><path d="M11.408 8.29c0-.066 0-.066 0 0v-.132s0-.066-.066-.066c-.067-.067-.133-.2-.067-.332 0-.132 0-.199-.066-.265s-.066-.2-.066-.332c0 .133 0 .2.066.332.066.066.066.199.066.265 0 .133.067.265.067.332 0 0 0 .066.066.066s.066.066 0 .133c0-.067 0-.067 0 0 .066 0 .066-.067.066-.2 0-.066 0-.066-.066-.132 0-.066-.066-.132-.066-.331 0-.133 0-.2-.067-.266 0-.066-.066-.132-.066-.265 0 .133 0 .199.066.265 0 .067.067.133.067.266 0 .199 0 .265.066.331 0 .066 0 .066.066.133.067.066 0 .132-.066.199z" fill="#7A361D"/></g><mask id="mask89_12_1250" style="mask-type:luminance" maskUnits="userSpaceOnUse" x="0" y="0" width="23" height="13"><path d="M22.286 0H0v13h22.286V0z" fill="#fff"/></mask><g mask="url(#mask89_12_1250)"><path d="M11.21 7.097c0 .265.132.332.132.53.066-.132-.067-.265-.133-.53z" fill="#7A361D"/></g><mask id="mask90_12_1250" style="mask-type:luminance" maskUnits="userSpaceOnUse" x="0" y="0" width="23" height="13"><path d="M22.286 0H0v13h22.286V0z" fill="#fff"/></mask><g mask="url(#mask90_12_1250)"><path d="M11.143 5.77c.398 0 .73.332.73.73 0 .398-.332.73-.73.73a.736.736 0 01-.73-.73c0-.398.332-.73.73-.73z" fill="#F1BD51"/></g><mask id="mask91_12_1250" style="mask-type:luminance" maskUnits="userSpaceOnUse" x="0" y="0" width="23" height="13"><path d="M22.286 0H0v13h22.286V0z" fill="#fff"/></mask><g mask="url(#mask91_12_1250)"><path d="M11.143 7.23a.736.736 0 01-.73-.73c0-.398.332-.73.73-.73.398 0 .73.332.73.73 0 .398-.332.73-.73.73zm0-1.46a.736.736 0 00-.73.73c0 .398.332.73.73.73.398 0 .73-.332.73-.73a.736.736 0 00-.73-.73z" fill="#7A361D"/></g><mask id="mask92_12_1250" style="mask-type:luminance" maskUnits="userSpaceOnUse" x="0" y="0" width="23" height="13"><path d="M22.286 0H0v13h22.286V0z" fill="#fff"/></mask><g mask="url(#mask92_12_1250)"><path d="M11.607 6.367c-.132-.132-.265-.132-.398-.066a.202.202 0 000 .265c-.066-.132-.066-.199 0-.331.067-.067.266-.067.398.132z" fill="#7A361D"/></g><mask id="mask93_12_1250" style="mask-type:luminance" maskUnits="userSpaceOnUse" x="0" y="0" width="23" height="13"><path d="M22.286 0H0v13h22.286V0z" fill="#fff"/></mask><g mask="url(#mask93_12_1250)"><path d="M11.408 6.301c-.066 0-.066 0-.133.066h-.066s.066 0 .066-.066h.133c.066 0 .133.133.133.066 0 0-.067-.066-.133-.066z" fill="#7A361D"/></g><mask id="mask94_12_1250" style="mask-type:luminance" maskUnits="userSpaceOnUse" x="0" y="0" width="23" height="13"><path d="M22.286 0H0v13h22.286V0z" fill="#fff"/></mask><g mask="url(#mask94_12_1250)"><path d="M11.54 6.367a.202.202 0 00-.264 0c.066-.066.199 0 .265 0z" fill="#7A361D"/></g><mask id="mask95_12_1250" style="mask-type:luminance" maskUnits="userSpaceOnUse" x="0" y="0" width="23" height="13"><path d="M22.286 0H0v13h22.286V0z" fill="#fff"/></mask><g mask="url(#mask95_12_1250)"><path d="M11.408 6.367c.067.067 0 .133 0 .133-.066-.066-.066-.066 0-.133-.066 0-.066 0 0 0z" fill="#7A361D"/></g><mask id="mask96_12_1250" style="mask-type:luminance" maskUnits="userSpaceOnUse" x="0" y="0" width="23" height="13"><path d="M22.286 0H0v13h22.286V0z" fill="#fff"/></mask><g mask="url(#mask96_12_1250)"><path d="M11.275 6.434a.202.202 0 00.266 0h-.266z" fill="#7A361D"/></g><mask id="mask97_12_1250" style="mask-type:luminance" maskUnits="userSpaceOnUse" x="0" y="0" width="23" height="13"><path d="M22.286 0H0v13h22.286V0z" fill="#fff"/></mask><g mask="url(#mask97_12_1250)"><path d="M11.54 6.434c-.066.066-.198.066-.265.066l-.066-.066h.066c.067.066.133.066.266 0z" fill="#7A361D"/></g><mask id="mask98_12_1250" style="mask-type:luminance" maskUnits="userSpaceOnUse" x="0" y="0" width="23" height="13"><path d="M22.286 0H0v13h22.286V0z" fill="#fff"/></mask><g mask="url(#mask98_12_1250)"><path d="M11.275 6.566c-.066.067 0 .067 0 0-.066.067-.066.067 0 0-.066.067-.066.067-.132.067h.132v-.067z" fill="#7A361D"/></g><mask id="mask99_12_1250" style="mask-type:luminance" maskUnits="userSpaceOnUse" x="0" y="0" width="23" height="13"><path d="M22.286 0H0v13h22.286V0z" fill="#fff"/></mask><g mask="url(#mask99_12_1250)"><path d="M11.21 7.03c0-.066-.067-.066-.134-.066-.066 0-.132.067-.132.067 0-.067.066-.067.132-.067.133 0 .133 0 .133.067z" fill="#7A361D"/></g><mask id="mask100_12_1250" style="mask-type:luminance" maskUnits="userSpaceOnUse" x="0" y="0" width="23" height="13"><path d="M22.286 0H0v13h22.286V0z" fill="#fff"/></mask><g mask="url(#mask100_12_1250)"><path d="M10.679 6.367c.132-.132.265-.132.397-.066a.202.202 0 010 .265c.067-.132.067-.199 0-.331-.132-.067-.265-.067-.397.132z" fill="#7A361D"/></g><mask id="mask101_12_1250" style="mask-type:luminance" maskUnits="userSpaceOnUse" x="0" y="0" width="23" height="13"><path d="M22.286 0H0v13h22.286V0z" fill="#fff"/></mask><g mask="url(#mask101_12_1250)"><path d="M10.878 6.301c.066 0 .066 0 .132.066h.066l-.066-.066h-.132c-.133 0-.133.133-.2.066 0 0 .067-.066.2-.066z" fill="#7A361D"/></g><mask id="mask102_12_1250" style="mask-type:luminance" maskUnits="userSpaceOnUse" x="0" y="0" width="23" height="13"><path d="M22.286 0H0v13h22.286V0z" fill="#fff"/></mask><g mask="url(#mask102_12_1250)"><path d="M10.745 6.367a.202.202 0 01.265 0c-.066-.066-.199 0-.265 0z" fill="#7A361D"/></g><mask id="mask103_12_1250" style="mask-type:luminance" maskUnits="userSpaceOnUse" x="0" y="0" width="23" height="13"><path d="M22.286 0H0v13h22.286V0z" fill="#fff"/></mask><g mask="url(#mask103_12_1250)"><path d="M10.877 6.367c-.066.067 0 .133 0 .133.067-.066.067-.066 0-.133.067 0 .067 0 0 0z" fill="#7A361D"/></g><mask id="mask104_12_1250" style="mask-type:luminance" maskUnits="userSpaceOnUse" x="0" y="0" width="23" height="13"><path d="M22.286 0H0v13h22.286V0z" fill="#fff"/></mask><g mask="url(#mask104_12_1250)"><path d="M11.01 6.434a.202.202 0 01-.265 0h.266z" fill="#7A361D"/></g><mask id="mask105_12_1250" style="mask-type:luminance" maskUnits="userSpaceOnUse" x="0" y="0" width="23" height="13"><path d="M22.286 0H0v13h22.286V0z" fill="#fff"/></mask><g mask="url(#mask105_12_1250)"><path d="M10.745 6.434c.066.066.199.066.265.066l.067-.066h-.067c-.066.066-.132.066-.265 0z" fill="#7A361D"/></g><mask id="mask106_12_1250" style="mask-type:luminance" maskUnits="userSpaceOnUse" x="0" y="0" width="23" height="13"><path d="M22.286 0H0v13h22.286V0z" fill="#fff"/></mask><g mask="url(#mask106_12_1250)"><path d="M11.01 6.566c0 .067 0 .067 0 0 .066.067.066.067 0 0 .066.067.066.067.133.067h-.133c-.066 0-.066 0 0-.067z" fill="#7A361D"/></g><mask id="mask107_12_1250" style="mask-type:luminance" maskUnits="userSpaceOnUse" x="0" y="0" width="23" height="13"><path d="M22.286 0H0v13h22.286V0z" fill="#fff"/></mask><g mask="url(#mask107_12_1250)"><path d="M10.944 6.832c.066 0 .066-.067.132-.067-.066 0-.132.067-.132.067z" fill="#7A361D"/></g><mask id="mask108_12_1250" style="mask-type:luminance" maskUnits="userSpaceOnUse" x="0" y="0" width="23" height="13"><path d="M22.286 0H0v13h22.286V0z" fill="#fff"/></mask><g mask="url(#mask108_12_1250)"><path d="M11.143 6.964c.066 0 .133.067.133.067 0-.067-.067-.067-.133-.067z" fill="#7A361D"/></g></g></svg>