<svg width="23" height="13" fill="none" xmlns="http://www.w3.org/2000/svg"><mask id="mask0_12_1782" style="mask-type:luminance" maskUnits="userSpaceOnUse" x="0" y="0" width="23" height="13"><path d="M22.286 0H0v13h22.286V0z" fill="#fff"/></mask><g mask="url(#mask0_12_1782)"><path d="M22.286 0H0v13h22.286V0z" fill="#180087"/></g><mask id="mask1_12_1782" style="mask-type:luminance" maskUnits="userSpaceOnUse" x="0" y="0" width="23" height="13"><path d="M22.286 0H0v13h22.286V0z" fill="#fff"/></mask><g mask="url(#mask1_12_1782)"><path d="M5.837 7.96l.331 1.06 1.062-.398-.597.93.928.53-1.06.132.132 1.062-.796-.796-.73.796.133-1.062-1.128-.132.995-.53-.597-.93.995.398.332-1.06z" fill="#fff"/></g><mask id="mask2_12_1782" style="mask-type:luminance" maskUnits="userSpaceOnUse" x="0" y="0" width="23" height="13"><path d="M22.286 0H0v13h22.286V0z" fill="#fff"/></mask><g mask="url(#mask2_12_1782)"><path d="M17.577 9.883l.132.464.53-.199-.33.464.463.266-.53.066.066.53-.331-.397-.398.398.132-.531-.53-.066.398-.266-.266-.464.465.199.199-.464z" fill="#fff"/></g><mask id="mask3_12_1782" style="mask-type:luminance" maskUnits="userSpaceOnUse" x="0" y="0" width="23" height="13"><path d="M22.286 0H0v13h22.286V0z" fill="#fff"/></mask><g mask="url(#mask3_12_1782)"><path d="M14.658 5.24l.133.464.53-.199-.331.464.464.266-.53.066.066.53-.332-.397-.398.398.066-.531-.53-.066.464-.266-.265-.464.464.199.2-.464z" fill="#fff"/></g><mask id="mask4_12_1782" style="mask-type:luminance" maskUnits="userSpaceOnUse" x="0" y="0" width="23" height="13"><path d="M22.286 0H0v13h22.286V0z" fill="#fff"/></mask><g mask="url(#mask4_12_1782)"><path d="M17.577 2.056l.132.464.53-.132-.33.398.463.265-.53.066.066.531-.331-.398-.398.398.132-.53-.53-.067.398-.265-.266-.398.465.132.199-.464z" fill="#fff"/></g><mask id="mask5_12_1782" style="mask-type:luminance" maskUnits="userSpaceOnUse" x="0" y="0" width="23" height="13"><path d="M22.286 0H0v13h22.286V0z" fill="#fff"/></mask><g mask="url(#mask5_12_1782)"><path d="M20.163 4.444l.2.464.463-.133-.265.398.398.266-.53.066.132.53-.398-.397-.331.398.066-.53-.53-.067.464-.266-.332-.398.53.133.133-.464z" fill="#fff"/></g><mask id="mask6_12_1782" style="mask-type:luminance" maskUnits="userSpaceOnUse" x="0" y="0" width="23" height="13"><path d="M22.286 0H0v13h22.286V0z" fill="#fff"/></mask><g mask="url(#mask6_12_1782)"><path d="M18.77 6.765l.067.332h.398l-.266.265.067.332-.266-.2-.331.2.066-.332-.199-.265h.332l.132-.332z" fill="#fff"/></g><mask id="mask7_12_1782" style="mask-type:luminance" maskUnits="userSpaceOnUse" x="0" y="0" width="23" height="13"><path d="M22.286 0H0v13h22.286V0z" fill="#fff"/></mask><g mask="url(#mask7_12_1782)"><path d="M4.908 0v1.923H0v1.99h4.908v1.924h1.924V3.913h4.908v-1.99H6.832V0H4.908z" fill="#fff"/></g><mask id="mask8_12_1782" style="mask-type:luminance" maskUnits="userSpaceOnUse" x="0" y="0" width="23" height="13"><path d="M22.286 0H0v13h22.286V0z" fill="#fff"/></mask><g mask="url(#mask8_12_1782)"><path d="M0 0v.663l10.413 5.174h1.327v-.664L1.327 0H0z" fill="#fff"/></g><mask id="mask9_12_1782" style="mask-type:luminance" maskUnits="userSpaceOnUse" x="0" y="0" width="23" height="13"><path d="M22.286 0H0v13h22.286V0z" fill="#fff"/></mask><g mask="url(#mask9_12_1782)"><path d="M10.413 0L0 5.173v.664h1.327L11.74.663V0h-1.327z" fill="#fff"/></g><mask id="mask10_12_1782" style="mask-type:luminance" maskUnits="userSpaceOnUse" x="0" y="0" width="23" height="13"><path d="M22.286 0H0v13h22.286V0z" fill="#fff"/></mask><g mask="url(#mask10_12_1782)"><path d="M5.24 0v2.321H0v1.194h5.24v2.322h1.194V3.515h5.306V2.321H6.434V0H5.24z" fill="#EA0020"/></g><mask id="mask11_12_1782" style="mask-type:luminance" maskUnits="userSpaceOnUse" x="0" y="0" width="23" height="13"><path d="M22.286 0H0v13h22.286V0z" fill="#fff"/></mask><g mask="url(#mask11_12_1782)"><path d="M0 0v.464L3.051 1.99h.862L0 0zm10.811 0L6.898 1.923h.862L11.74 0h-.929z" fill="#EA0020"/></g><mask id="mask12_12_1782" style="mask-type:luminance" maskUnits="userSpaceOnUse" x="0" y="0" width="23" height="13"><path d="M22.286 0H0v13h22.286V0z" fill="#fff"/></mask><g mask="url(#mask12_12_1782)"><path d="M3.913 3.913L0 5.837h.862l3.914-1.924h-.863zm3.914 0l3.913 1.924v-.398L8.689 3.913h-.862z" fill="#EA0020"/></g></svg>