<svg width="23" height="13" fill="none" xmlns="http://www.w3.org/2000/svg"><mask id="mask0_12_1191" style="mask-type:luminance" maskUnits="userSpaceOnUse" x="0" y="0" width="23" height="13"><path d="M22.286 0H0v13h22.286V0z" fill="#fff"/></mask><g mask="url(#mask0_12_1191)"><path d="M22.286 0H0v13h22.286V0z" fill="#fff"/></g><mask id="mask1_12_1191" style="mask-type:luminance" maskUnits="userSpaceOnUse" x="0" y="0" width="23" height="13"><path d="M22.286 0H0v13h22.286V0z" fill="#fff"/></mask><g mask="url(#mask1_12_1191)"><path d="M14.924 4.71L22.285.596V0h-.53l-8.358 4.71h1.526z" fill="#BD0034"/></g><mask id="mask2_12_1191" style="mask-type:luminance" maskUnits="userSpaceOnUse" x="0" y="0" width="23" height="13"><path d="M22.286 0H0v13h22.286V0z" fill="#fff"/></mask><g mask="url(#mask2_12_1191)"><path d="M14.525 8.556l7.76 4.311v-.862l-6.168-3.449h-1.592z" fill="#BD0034"/></g><mask id="mask3_12_1191" style="mask-type:luminance" maskUnits="userSpaceOnUse" x="0" y="0" width="23" height="13"><path d="M22.286 0H0v13h22.286V0z" fill="#fff"/></mask><g mask="url(#mask3_12_1191)"><path d="M0 .995l6.566 3.714h1.592L0 .133v.862z" fill="#BD0034"/></g><mask id="mask4_12_1191" style="mask-type:luminance" maskUnits="userSpaceOnUse" x="0" y="0" width="23" height="13"><path d="M22.286 0H0v13h22.286V0z" fill="#fff"/></mask><g mask="url(#mask4_12_1191)"><path d="M7.76 8.556L0 12.934V13h1.393l7.959-4.444H7.76z" fill="#BD0034"/></g><mask id="mask5_12_1191" style="mask-type:luminance" maskUnits="userSpaceOnUse" x="0" y="0" width="23" height="13"><path d="M22.286 0H0v13h22.286V0z" fill="#fff"/></mask><g mask="url(#mask5_12_1191)"><path d="M20.76 0h-7.826v4.378L20.76 0z" fill="#1A237B"/></g><mask id="mask6_12_1191" style="mask-type:luminance" maskUnits="userSpaceOnUse" x="0" y="0" width="23" height="13"><path d="M22.286 0H0v13h22.286V0z" fill="#fff"/></mask><g mask="url(#mask6_12_1191)"><path d="M9.485 0h-7.76l7.76 4.378V0z" fill="#1A237B"/></g><mask id="mask7_12_1191" style="mask-type:luminance" maskUnits="userSpaceOnUse" x="0" y="0" width="23" height="13"><path d="M22.286 0H0v13h22.286V0z" fill="#fff"/></mask><g mask="url(#mask7_12_1191)"><path d="M22.286 4.71V1.723L16.98 4.71h5.306z" fill="#1A237B"/></g><mask id="mask8_12_1191" style="mask-type:luminance" maskUnits="userSpaceOnUse" x="0" y="0" width="23" height="13"><path d="M22.286 0H0v13h22.286V0z" fill="#fff"/></mask><g mask="url(#mask8_12_1191)"><path d="M22.286 11.475V8.556H16.98l5.306 2.919z" fill="#1A237B"/></g><mask id="mask9_12_1191" style="mask-type:luminance" maskUnits="userSpaceOnUse" x="0" y="0" width="23" height="13"><path d="M22.286 0H0v13h22.286V0z" fill="#fff"/></mask><g mask="url(#mask9_12_1191)"><path d="M2.189 13h7.296V8.888L2.189 13z" fill="#1A237B"/></g><mask id="mask10_12_1191" style="mask-type:luminance" maskUnits="userSpaceOnUse" x="0" y="0" width="23" height="13"><path d="M22.286 0H0v13h22.286V0z" fill="#fff"/></mask><g mask="url(#mask10_12_1191)"><path d="M12.934 13h7.362l-7.362-4.112V13z" fill="#1A237B"/></g><mask id="mask11_12_1191" style="mask-type:luminance" maskUnits="userSpaceOnUse" x="0" y="0" width="23" height="13"><path d="M22.286 0H0v13h22.286V0z" fill="#fff"/></mask><g mask="url(#mask11_12_1191)"><path d="M0 8.556v3.051l5.439-3.05H0z" fill="#1A237B"/></g><mask id="mask12_12_1191" style="mask-type:luminance" maskUnits="userSpaceOnUse" x="0" y="0" width="23" height="13"><path d="M22.286 0H0v13h22.286V0z" fill="#fff"/></mask><g mask="url(#mask12_12_1191)"><path d="M0 4.71h5.439L0 1.591v3.117z" fill="#1A237B"/></g><mask id="mask13_12_1191" style="mask-type:luminance" maskUnits="userSpaceOnUse" x="0" y="0" width="23" height="13"><path d="M22.286 0H0v13h22.286V0z" fill="#fff"/></mask><g mask="url(#mask13_12_1191)"><path d="M10.214 0v5.439H0V7.76h10.214V13h2.056V7.76h10.016V5.44H12.27V0h-2.056z" fill="#BD0034"/></g></svg>