<svg width="23" height="13" fill="none" xmlns="http://www.w3.org/2000/svg"><mask id="mask0_12_3105" style="mask-type:luminance" maskUnits="userSpaceOnUse" x="0" y="0" width="23" height="13"><path d="M22.286 0H0v13h22.286V0z" fill="#fff"/></mask><g mask="url(#mask0_12_3105)"><path d="M5.24 0H0v13h5.24V0z" fill="#EA0020"/></g><mask id="mask1_12_3105" style="mask-type:luminance" maskUnits="userSpaceOnUse" x="0" y="0" width="23" height="13"><path d="M22.286 0H0v13h22.286V0z" fill="#fff"/></mask><g mask="url(#mask1_12_3105)"><path d="M22.286 0h-5.24v13h5.24V0z" fill="#EA0020"/></g><mask id="mask2_12_3105" style="mask-type:luminance" maskUnits="userSpaceOnUse" x="0" y="0" width="23" height="13"><path d="M22.286 0H0v13h22.286V0z" fill="#fff"/></mask><g mask="url(#mask2_12_3105)"><path d="M17.046 0H5.24v13h11.806V0z" fill="#fff"/></g><mask id="mask3_12_3105" style="mask-type:luminance" maskUnits="userSpaceOnUse" x="0" y="0" width="23" height="13"><path d="M22.286 0H0v13h22.286V0z" fill="#fff"/></mask><g mask="url(#mask3_12_3105)"><mask id="mask4_12_3105" style="mask-type:luminance" maskUnits="userSpaceOnUse" x="0" y="0" width="23" height="13"><path d="M22.286 0H0v13h22.286V0z" fill="#fff"/></mask><g mask="url(#mask4_12_3105)"><path d="M11.143 1.658l-.796 1.526c-.066.132-.265.132-.398.066l-.53-.332.397 2.322c.067.398-.199.398-.331.265L8.49 4.378l-.133.597c0 .066-.066.132-.199.132l-1.26-.265.332 1.26c.066.265.132.398-.067.464l-.464.2 2.122 1.79c.067.066.133.2.067.332l-.2.663c.73-.066 1.394-.199 2.123-.265.066 0 .2.066.2.132l-.067 2.322h.331l-.066-2.454c0-.067.066-.133.133-.133.73.066 1.393.2 2.122.265l-.199-.663c0-.133 0-.199.067-.331l2.122-1.791-.464-.2c-.2-.066-.133-.198-.066-.464l.331-1.26-1.26.266c-.133 0-.2-.067-.2-.133l-.132-.597-.995 1.127c-.132.2-.398.2-.331-.265l.398-2.321-.53.331c-.067.2-.2.2-.333.067l-.73-1.526z" fill="#EA0020"/></g></g></svg>