<svg width="206" height="61" fill="none" xmlns="http://www.w3.org/2000/svg"><path d="M13.84 49.128c-2.03 2.342-5.585 2.576-7.477.117a30.689 30.689 0 01-5.77-12.738C-.7 29.997.13 23.206 2.993 17.235c2.862-5.995 7.57-10.866 13.41-13.886A29.627 29.627 0 0129.811 0c3.07-.023 5.077 2.95 4.547 6.018-.531 3.068-3.462 5.011-6.509 5.386a18.92 18.92 0 00-6.416 1.967 19.144 19.144 0 00-8.447 8.758 19.518 19.518 0 00-1.524 12.153 19.176 19.176 0 002.47 6.322c1.639 2.67 1.939 6.206-.092 8.524z" fill="url(#paint0_linear_12_321)"/><path d="M23.257 6.604c-.854-2.974.854-6.159 3.9-6.463a29.985 29.985 0 018.794.445 29.808 29.808 0 0112.925 6.111 30.7 30.7 0 018.7 11.474 31.068 31.068 0 012.516 14.238 30.767 30.767 0 01-4.246 13.815 30.552 30.552 0 01-10.04 10.28 29.87 29.87 0 01-13.571 4.426 29.998 29.998 0 01-8.793-.68c-2.978-.678-4.293-4.05-3.07-6.907 1.223-2.857 4.5-4.075 7.547-3.723 1.177.14 2.354.164 3.531.07a18.64 18.64 0 008.563-2.787 19.183 19.183 0 006.324-6.486 19.308 19.308 0 002.677-8.71 19.445 19.445 0 00-1.592-8.993 19.335 19.335 0 00-5.493-7.236 19.065 19.065 0 00-8.148-3.863 19.615 19.615 0 00-3.508-.375c-3.07-.023-6.162-1.64-7.016-4.636z" fill="url(#paint1_linear_12_321)"/><g opacity=".2"><path d="M16.425 46.141c-1.708 1.944-4.685 2.155-6.254.094A25.932 25.932 0 014.978 32.7a25.877 25.877 0 015.493-18.17c4.062-5.106 9.9-8.454 16.294-9.297A24.63 24.63 0 0140.89 7.528c2.308 1.124 2.746 4.12 1.246 6.205-1.523 2.107-4.431 2.482-6.854 1.616a15.799 15.799 0 00-7.317-.773 15.721 15.721 0 00-10.27 5.877 16.256 16.256 0 00-3.462 11.451 16.481 16.481 0 002.308 7.142c1.338 2.201 1.592 5.152-.116 7.095z" fill="url(#paint2_linear_12_321)"/><path d="M10.962 23.52c-2.423-.89-3.716-3.605-2.4-5.877a25.305 25.305 0 019.74-9.554 24.982 24.982 0 0117.817-2.412c6.024 1.452 11.31 5.105 14.864 10.257a25.803 25.803 0 014.362 17.68c-.739 6.228-3.716 11.989-8.355 16.133a25.124 25.124 0 01-16.826 6.393 25.04 25.04 0 01-16.779-6.604 25.458 25.458 0 01-7.224-11.638c-.738-2.505 1.154-4.847 3.716-5.128 2.562-.28 4.778 1.663 5.793 4.051a15.955 15.955 0 003.993 5.69 15.674 15.674 0 0010.57 4.169 15.738 15.738 0 0010.617-4.028c2.932-2.623 4.801-6.252 5.286-10.186.461-3.934-.508-7.915-2.747-11.146a15.92 15.92 0 00-9.37-6.463 15.663 15.663 0 00-11.24 1.522 15.851 15.851 0 00-5.24 4.59c-1.546 2.083-4.154 3.442-6.577 2.552z" fill="url(#paint3_linear_12_321)"/></g><path d="M200.207 17.52H206v25.96h-5.793V17.52zm-8.498 25.96l-1.267-4.079h-9.414l-1.267 4.08h-6.337l8.618-25.962h7.386l8.618 25.962h-6.337zm-8.943-9.642h5.938l-2.969-9.532-2.969 9.532zm-9.352 9.642h-6.227l-3.368-4.895-3.367 4.896h-6.228l6.482-9.42-6.264-9.124h6.227l3.15 4.599 3.15-4.6h6.228l-6.264 9.124 6.481 9.42zm-32.254-7.046c.628 1.73 2.076 2.596 4.345 2.596 1.473 0 2.631-.47 3.476-1.41l4.345 2.56c-1.786 2.547-4.417 3.82-7.893 3.82-3.042 0-5.48-.927-7.314-2.782-1.81-1.854-2.716-4.19-2.716-7.01 0-2.793.893-5.117 2.68-6.972 1.81-1.879 4.127-2.818 6.952-2.818 2.631 0 4.815.94 6.553 2.818 1.762 1.855 2.643 4.179 2.643 6.973 0 .791-.072 1.533-.217 2.225H141.16zm-.108-4.154h7.784c-.531-1.953-1.81-2.93-3.838-2.93-2.1 0-3.415.977-3.946 2.93zm-15.336-7.862c2.076 0 3.742.704 4.997 2.114 1.255 1.384 1.883 3.239 1.883 5.563V43.48h-5.431V32.577c0-.94-.23-1.681-.688-2.225-.435-.544-1.074-.816-1.919-.816-.893 0-1.593.309-2.1.927-.483.618-.724 1.471-.724 2.559v10.459h-5.432V32.577c0-.94-.229-1.681-.688-2.225-.434-.544-1.074-.816-1.919-.816-.893 0-1.593.309-2.1.927-.482.618-.724 1.471-.724 2.559v10.459h-5.431V24.937h5.431v1.706c.99-1.484 2.607-2.225 4.852-2.225 2.1 0 3.681.816 4.743 2.447 1.111-1.631 2.861-2.447 5.25-2.447zM98.521 40.106C95.963 42.702 92.85 44 89.18 44c-3.67 0-6.783-1.298-9.342-3.894S76 34.308 76 30.5s1.28-7.01 3.838-9.606C82.397 18.298 85.511 17 89.18 17c3.669 0 6.782 1.298 9.341 3.894 2.559 2.596 3.838 5.798 3.838 9.606s-1.279 7.01-3.838 9.606zm-14.628-4.043c1.424 1.434 3.187 2.151 5.287 2.151s3.85-.717 5.25-2.15c1.424-1.435 2.136-3.29 2.136-5.564 0-2.275-.712-4.13-2.136-5.563-1.4-1.434-3.15-2.151-5.25-2.151s-3.863.717-5.287 2.15c-1.4 1.435-2.1 3.29-2.1 5.564 0 2.275.7 4.13 2.1 5.563z" fill="#E1E7EB"/><defs><linearGradient id="paint0_linear_12_321" x1="17.233" y1=".001" x2="17.233" y2="60.992" gradientUnits="userSpaceOnUse"><stop stop-color="#68E1FC"/><stop offset="1" stop-color="#DBFFFF"/></linearGradient><linearGradient id="paint1_linear_12_321" x1="30.309" y1="62.111" x2="46.288" y2="3.333" gradientUnits="userSpaceOnUse"><stop stop-color="#68E1FC"/><stop offset="1" stop-color="#DBFFFF"/></linearGradient><linearGradient id="paint2_linear_12_321" x1="23.952" y1="5.016" x2="23.952" y2="56.127" gradientUnits="userSpaceOnUse"><stop stop-color="#DBFFFF"/><stop offset="1" stop-color="#68E1FC"/></linearGradient><linearGradient id="paint3_linear_12_321" x1="24.15" y1="55.371" x2="37.553" y2="6.069" gradientUnits="userSpaceOnUse"><stop stop-color="#DBFFFF"/><stop offset="1" stop-color="#68E1FC"/></linearGradient></defs></svg>