<svg width="59" height="15" fill="none" xmlns="http://www.w3.org/2000/svg"><path d="M3.196 11.345c-.469.54-1.29.594-1.727.026A7.112 7.112 0 01.691 3.98 7 7 0 013.788.774 6.841 6.841 0 016.884 0c.709-.005 1.173.681 1.05 1.39-.123.708-.8 1.157-1.503 1.243a4.37 4.37 0 00-1.482.455A4.42 4.42 0 003 5.11a4.507 4.507 0 00-.352 2.806c.101.52.299 1.017.57 1.46.379.617.448 1.433-.021 1.969z" fill="url(#paint0_linear_12_3629)"/><path d="M5.37 1.525C5.173.838 5.568.103 6.271.032a6.883 6.883 0 015.015 1.514 7.09 7.09 0 012.59 5.938 7.105 7.105 0 01-.98 3.19 7.055 7.055 0 01-2.319 2.374c-.948.59-2.025.94-3.133 1.022a6.929 6.929 0 01-2.031-.157c-.687-.157-.991-.936-.709-1.595.283-.66 1.04-.941 1.743-.86.272.033.544.038.815.016a4.305 4.305 0 001.978-.643 4.458 4.458 0 002.079-3.51 4.49 4.49 0 00-.368-2.076A4.403 4.403 0 007.8 2.682a4.529 4.529 0 00-.81-.086c-.71-.006-1.423-.379-1.62-1.071z" fill="url(#paint1_linear_12_3629)"/><g opacity=".2"><path d="M3.793 10.626c-.394.449-1.082.497-1.444.021a5.975 5.975 0 01.07-7.321A5.788 5.788 0 016.18 1.179a5.688 5.688 0 013.261.53c.533.26.635.952.288 1.433-.352.487-1.023.573-1.583.373a3.648 3.648 0 00-1.69-.178 3.63 3.63 0 00-2.37 1.357 3.754 3.754 0 00-.8 2.644c.048.59.234 1.152.533 1.65.309.508.367 1.189-.027 1.638z" fill="url(#paint2_linear_12_3629)"/><path d="M2.466 5.402c-.56-.206-.858-.833-.555-1.357a5.843 5.843 0 012.25-2.207 5.769 5.769 0 014.114-.556 5.836 5.836 0 013.432 2.368 5.959 5.959 0 011.007 4.082 5.938 5.938 0 01-1.929 3.726A5.802 5.802 0 016.9 12.934a5.782 5.782 0 01-3.875-1.525 5.879 5.879 0 01-1.668-2.687c-.17-.579.267-1.12.858-1.184.592-.065 1.103.384 1.338.935.208.498.517.946.922 1.314a3.634 3.634 0 004.893.032 3.757 3.757 0 00.586-4.926A3.676 3.676 0 007.79 3.402a3.617 3.617 0 00-2.596.352 3.66 3.66 0 00-1.21 1.06c-.357.48-.959.794-1.518.589z" fill="url(#paint3_linear_12_3629)"/></g><path d="M57.153 3.002H59v8.082h-1.847V3.002zm-2.71 8.082l-.404-1.27h-3.002l-.404 1.27h-2.02l2.747-8.082h2.356l2.748 8.082h-2.021zm-2.852-3.002h1.894l-.947-2.967-.947 2.967zm-2.981 3.002h-1.987L45.55 9.56l-1.074 1.524H42.49l2.067-2.933-1.998-2.84h1.986l1.005 1.432 1.004-1.432h1.986l-1.998 2.84 2.067 2.933zM38.324 8.89c.2.54.662.809 1.386.809.47 0 .839-.147 1.108-.44l1.386.797c-.57.793-1.41 1.19-2.517 1.19-.97 0-1.748-.289-2.333-.866-.577-.578-.866-1.305-.866-2.182 0-.87.285-1.594.855-2.171.577-.585 1.316-.878 2.216-.878.84 0 1.536.293 2.09.878.562.577.843 1.3.843 2.17 0 .247-.023.478-.07.693h-4.098zm-.035-1.293h2.483c-.17-.608-.578-.912-1.224-.912-.67 0-1.09.304-1.259.912zM33.4 5.15c.661 0 1.192.219 1.593.658.4.43.6 1.008.6 1.732v3.544h-1.732V7.69c0-.293-.073-.524-.22-.693-.138-.17-.342-.254-.611-.254-.285 0-.508.096-.67.288-.154.193-.23.458-.23.797v3.256h-1.733V7.69c0-.293-.073-.524-.219-.693-.139-.17-.343-.254-.612-.254-.285 0-.508.096-.67.288-.154.193-.23.458-.23.797v3.256h-1.732V5.311h1.732v.531c.315-.462.83-.692 1.547-.692.67 0 1.174.254 1.512.762.354-.508.912-.763 1.674-.763zm-8.673 4.883c-.816.809-1.808 1.213-2.978 1.213-1.17 0-2.163-.404-2.98-1.213-.815-.808-1.223-1.805-1.223-2.99 0-1.185.408-2.182 1.224-2.99.816-.809 1.809-1.213 2.979-1.213 1.17 0 2.163.404 2.978 1.213.816.808 1.224 1.805 1.224 2.99 0 1.185-.408 2.182-1.224 2.99zm-4.664-1.258c.454.446 1.016.67 1.686.67.67 0 1.227-.224 1.674-.67.454-.447.68-1.024.68-1.732s-.226-1.285-.68-1.732c-.447-.446-1.005-.67-1.674-.67-.67 0-1.232.224-1.686.67-.447.447-.67 1.024-.67 1.732s.223 1.285.67 1.732z" fill="#E1E7EB"/><defs><linearGradient id="paint0_linear_12_3629" x1="3.979" y1="0" x2="3.979" y2="14.084" gradientUnits="userSpaceOnUse"><stop stop-color="#68E1FC"/><stop offset="1" stop-color="#DBFFFF"/></linearGradient><linearGradient id="paint1_linear_12_3629" x1="6.999" y1="14.342" x2="10.689" y2=".77" gradientUnits="userSpaceOnUse"><stop stop-color="#68E1FC"/><stop offset="1" stop-color="#DBFFFF"/></linearGradient><linearGradient id="paint2_linear_12_3629" x1="5.531" y1="1.129" x2="5.531" y2="12.931" gradientUnits="userSpaceOnUse"><stop stop-color="#DBFFFF"/><stop offset="1" stop-color="#68E1FC"/></linearGradient><linearGradient id="paint3_linear_12_3629" x1="5.511" y1="12.757" x2="8.606" y2="1.372" gradientUnits="userSpaceOnUse"><stop stop-color="#DBFFFF"/><stop offset="1" stop-color="#68E1FC"/></linearGradient></defs></svg>