<svg width="86" height="86" fill="none" xmlns="http://www.w3.org/2000/svg"><path d="M19.684 68.865c-2.889 3.283-7.943 3.611-10.635.165A42.729 42.729 0 01.843 51.173C-.995 42.048.186 32.53 4.257 24.16a42.771 42.771 0 0119.07-19.465A42.628 42.628 0 0142.398 0c4.366-.033 7.222 4.136 6.467 8.436-.755 4.3-4.924 7.024-9.257 7.55a27.2 27.2 0 00-9.125 2.757A27.015 27.015 0 0018.47 31.019a27.003 27.003 0 00-2.166 17.036 26.656 26.656 0 003.512 8.862c2.33 3.742 2.758 8.699-.131 11.948z" fill="url(#paint0_linear_12_286)"/><path d="M33.077 9.257C31.862 5.087 34.29.624 38.623.197A43.256 43.256 0 0151.13.821a42.663 42.663 0 0118.38 8.567 43.104 43.104 0 0112.375 16.084c2.757 6.27 4.005 13.13 3.578 19.957a42.685 42.685 0 01-6.04 19.366 43.122 43.122 0 01-14.278 14.41 42.908 42.908 0 01-19.3 6.204 43.262 43.262 0 01-12.507-.952c-4.234-.952-6.105-5.679-4.365-9.683 1.74-4.005 6.4-5.712 10.733-5.22 1.674.198 3.348.23 5.022.1a26.777 26.777 0 0012.178-3.907 27.076 27.076 0 008.994-9.092 26.785 26.785 0 003.807-12.21 26.91 26.91 0 00-2.264-12.605c-1.74-3.94-4.432-7.419-7.813-10.143a27.287 27.287 0 00-11.587-5.416 28.275 28.275 0 00-4.989-.525c-4.366-.033-8.764-2.298-9.978-6.5z" fill="url(#paint1_linear_12_286)"/><path d="M23.36 64.5c-2.429 2.725-6.663 3.02-8.895.131A36.048 36.048 0 017.079 45.66a35.914 35.914 0 017.812-25.472c5.778-7.155 14.082-11.85 23.174-13.03a35.48 35.48 0 0120.089 3.216c3.282 1.575 3.906 5.777 1.772 8.698-2.166 2.954-6.302 3.48-9.748 2.265a22.773 22.773 0 00-10.406-1.083 22.433 22.433 0 00-14.607 8.239 22.56 22.56 0 00-4.923 16.05 22.871 22.871 0 003.282 10.012c1.904 3.086 2.265 7.222-.164 9.946z" fill="url(#paint2_linear_12_286)" opacity=".2"/><defs><linearGradient id="paint0_linear_12_286" x1="24.509" y1=".002" x2="24.509" y2="85.496" gradientUnits="userSpaceOnUse"><stop stop-color="#68E1FC"/><stop offset="1" stop-color="#DBFFFF"/></linearGradient><linearGradient id="paint1_linear_12_286" x1="43.106" y1="87.064" x2="65.227" y2="4.509" gradientUnits="userSpaceOnUse"><stop stop-color="#68E1FC"/><stop offset="1" stop-color="#DBFFFF"/></linearGradient><linearGradient id="paint2_linear_12_286" x1="34.065" y1="6.853" x2="34.065" y2="78.497" gradientUnits="userSpaceOnUse"><stop stop-color="#DBFFFF"/><stop offset="1" stop-color="#68E1FC"/></linearGradient></defs></svg>