<svg width="190" height="38" fill="none" xmlns="http://www.w3.org/2000/svg"><path d="M181.533.73H190v36.54h-8.467V.73zm-12.419 36.54l-1.853-5.743h-13.759l-1.852 5.742h-9.261L154.984.731h10.796l12.594 36.538h-9.26zm-13.071-13.572h8.678l-4.339-13.415-4.339 13.415zM142.375 37.27h-9.102l-4.922-6.89-4.921 6.89h-9.102l9.472-13.26-9.155-12.84h9.102l4.604 6.472 4.604-6.473h9.102l-9.155 12.841 9.473 13.258zm-47.141-9.918c.918 2.436 3.034 3.654 6.351 3.654 2.152 0 3.845-.662 5.08-1.984l6.35 3.602c-2.61 3.584-6.456 5.376-11.536 5.376-4.445 0-8.008-1.305-10.69-3.915-2.646-2.61-3.969-5.898-3.969-9.865 0-3.932 1.306-7.203 3.916-9.813 2.646-2.645 6.033-3.967 10.161-3.967 3.845 0 7.038 1.322 9.578 3.967 2.575 2.61 3.863 5.88 3.863 9.813a14.78 14.78 0 01-.317 3.132H95.234zm-.158-5.846h11.377c-.776-2.75-2.646-4.124-5.609-4.124-3.07 0-4.992 1.374-5.768 4.123zM72.662 10.44c3.034 0 5.469.991 7.303 2.975 1.835 1.949 2.752 4.558 2.752 7.83v16.024h-7.938V21.923c0-1.322-.335-2.366-1.005-3.132-.635-.765-1.57-1.148-2.805-1.148-1.305 0-2.328.435-3.07 1.305-.705.87-1.058 2.07-1.058 3.601v14.72h-7.938V21.923c0-1.322-.335-2.366-1.005-3.132-.635-.765-1.57-1.148-2.805-1.148-1.305 0-2.328.435-3.069 1.305-.706.87-1.058 2.07-1.058 3.601v14.72h-7.938V11.17h7.938v2.401c1.446-2.088 3.81-3.131 7.09-3.131 3.07 0 5.38 1.148 6.933 3.445 1.623-2.297 4.18-3.445 7.673-3.445zM32.916 32.52C29.176 36.172 24.625 38 19.263 38c-5.363 0-9.914-1.827-13.654-5.48C1.87 28.864 0 24.358 0 19S1.87 9.135 5.61 5.48C9.348 1.828 13.9 0 19.261 0c5.363 0 9.914 1.827 13.654 5.48 3.74 3.655 5.61 8.161 5.61 13.52s-1.87 9.865-5.61 13.52zm-21.38-5.69c2.082 2.018 4.657 3.027 7.726 3.027 3.07 0 5.628-1.009 7.674-3.027 2.081-2.019 3.122-4.628 3.122-7.83 0-3.201-1.04-5.811-3.122-7.83-2.046-2.018-4.604-3.027-7.674-3.027-3.069 0-5.644 1.009-7.726 3.027C9.49 13.19 8.467 15.8 8.467 19c0 3.201 1.023 5.811 3.07 7.83z" fill="#fff"/></svg>