<svg width="34" height="25" fill="none" xmlns="http://www.w3.org/2000/svg"><mask id="mask0_12_3192" style="mask-type:luminance" maskUnits="userSpaceOnUse" x="0" y="0" width="34" height="25"><path d="M33.192 0H0v24.633h33.192V0z" fill="#fff"/></mask><g mask="url(#mask0_12_3192)"><path d="M6.014 24.581v-1.635c0-.625-.399-1.035-1.083-1.035-.342 0-.714.108-.97.464-.2-.299-.485-.464-.913-.464-.286 0-.572.083-.798.381v-.327h-.597v2.616h.597v-1.444c0-.464.256-.683.655-.683.398 0 .598.245.598.683v1.444H4.1v-1.444c0-.464.285-.683.654-.683.399 0 .598.245.598.683v1.444h.661zm8.87-2.616h-.97v-.79h-.598v.79h-.542v.518h.542v1.2c0 .6.255.952.94.952.255 0 .541-.083.74-.19l-.172-.492a.99.99 0 01-.515.136c-.286 0-.399-.165-.399-.435v-1.171h.97v-.518h.003zm5.075-.057a.818.818 0 00-.714.381v-.327h-.598v2.616h.598v-1.473c0-.435.2-.683.571-.683.113 0 .256.029.373.054l.172-.546c-.12-.022-.289-.022-.402-.022zm-7.67.273c-.286-.19-.684-.273-1.113-.273-.684 0-1.14.327-1.14.845 0 .434.343.682.941.762l.286.028c.312.054.485.137.485.273 0 .19-.23.327-.628.327-.399 0-.714-.137-.914-.273l-.285.435c.312.219.74.327 1.169.327.797 0 1.256-.356 1.256-.845 0-.463-.373-.707-.94-.79l-.286-.029c-.256-.028-.455-.082-.455-.244 0-.19.199-.298.515-.298.342 0 .684.136.857.219l.252-.464zm15.908-.273a.818.818 0 00-.714.381v-.327h-.598v2.616h.598v-1.473c0-.435.2-.683.572-.683.113 0 .255.029.372.054l.172-.54c-.116-.028-.285-.028-.402-.028zm-7.64 1.365c0 .79.572 1.362 1.455 1.362.399 0 .684-.083.97-.298l-.285-.464a1.18 1.18 0 01-.715.244c-.485 0-.827-.326-.827-.844 0-.492.342-.819.827-.844.256 0 .485.082.715.244l.285-.463c-.285-.22-.571-.299-.97-.299-.884-.003-1.455.572-1.455 1.362zm5.531 0v-1.308h-.598v.327c-.2-.244-.485-.38-.857-.38-.77 0-1.368.57-1.368 1.361 0 .79.597 1.362 1.368 1.362.399 0 .684-.137.857-.38v.326h.598v-1.308zm-2.196 0c0-.463.313-.844.828-.844.485 0 .827.355.827.844 0 .464-.343.845-.828.845-.511-.029-.827-.384-.827-.845zm-7.155-1.365c-.797 0-1.368.546-1.368 1.362 0 .819.57 1.362 1.398 1.362.399 0 .797-.108 1.113-.356l-.286-.41c-.23.166-.515.274-.797.274-.372 0-.74-.165-.827-.625h2.023v-.22c.026-.84-.489-1.387-1.256-1.387zm0 .492c.372 0 .628.22.684.626h-1.425c.057-.353.313-.626.741-.626zm14.855.873V20.93h-.598v1.362c-.199-.244-.485-.38-.857-.38-.77 0-1.368.57-1.368 1.361 0 .79.598 1.362 1.368 1.362.4 0 .685-.137.857-.38v.326h.598v-1.308zm-2.195 0c0-.463.312-.844.827-.844.485 0 .827.355.827.844 0 .464-.342.845-.827.845-.515-.029-.827-.384-.827-.845zm-20.018 0v-1.308h-.598v.327c-.2-.244-.485-.38-.857-.38-.77 0-1.368.57-1.368 1.361 0 .79.598 1.362 1.368 1.362.399 0 .684-.137.857-.38v.326h.598v-1.308zm-2.222 0c0-.463.312-.844.827-.844.485 0 .827.355.827.844 0 .464-.342.845-.827.845-.515-.029-.827-.384-.827-.845z" fill="#fff"/><path d="M21.072 2.099h-8.983v15.42h8.983V2.1z" fill="#FF5A00"/><path d="M12.69 9.809c0-3.133 1.54-5.914 3.906-7.71A10.513 10.513 0 0010.265 0C4.59 0 0 4.387 0 9.809c0 5.421 4.59 9.808 10.265 9.808 2.395 0 4.59-.79 6.331-2.098-2.369-1.771-3.906-4.577-3.906-7.71z" fill="#EB001B"/><path d="M33.194 9.809c0 5.421-4.591 9.808-10.265 9.808-2.395 0-4.59-.79-6.331-2.098 2.395-1.8 3.906-4.577 3.906-7.71s-1.541-5.914-3.906-7.71A10.496 10.496 0 0122.926 0c5.677 0 10.268 4.415 10.268 9.809z" fill="#F79E1B"/></g></svg>