<svg width="39" height="18" fill="none" xmlns="http://www.w3.org/2000/svg"><mask id="mask0_12_3215" style="mask-type:luminance" maskUnits="userSpaceOnUse" x="0" y="0" width="39" height="18"><path d="M38.662 0H.18v17.38h38.483V0z" fill="#fff"/></mask><g mask="url(#mask0_12_3215)"><path d="M18.364 8.985v4.242H16.92V2.735h3.752c.914 0 1.78.32 2.453.913.674.547 1.01 1.368 1.01 2.235 0 .867-.336 1.642-1.01 2.235-.673.593-1.491.912-2.453.912l-2.31-.045zm0-4.972v3.649h2.405c.53 0 1.058-.182 1.395-.547.77-.685.77-1.825.048-2.51l-.048-.045c-.385-.365-.866-.593-1.395-.547h-2.405zm9.09 1.824c1.058 0 1.876.274 2.502.821.625.548.914 1.278.914 2.19v4.38h-1.348v-1.004h-.048c-.577.82-1.394 1.231-2.357 1.231-.817 0-1.54-.228-2.116-.684-.53-.456-.866-1.095-.866-1.779 0-.73.289-1.323.866-1.779.577-.456 1.394-.639 2.357-.639.866 0 1.54.137 2.068.457v-.32c0-.456-.192-.912-.577-1.186a2.162 2.162 0 00-1.395-.502c-.818 0-1.443.32-1.876.958l-1.25-.73c.769-.957 1.78-1.414 3.126-1.414zm-1.828 5.2c0 .366.192.685.481.867.337.228.721.365 1.107.365.577 0 1.154-.228 1.587-.638.48-.41.722-.913.722-1.46-.433-.32-1.059-.502-1.876-.502-.578 0-1.059.137-1.444.41-.385.229-.577.548-.577.959zm13.034-4.97L33.896 16.42h-1.443l1.78-3.603-3.127-6.706h1.54l2.26 5.155h.049l2.212-5.155h1.491v-.045z" fill="#fff"/><path d="M12.636 8.073c0-.411-.048-.822-.096-1.232H6.527v2.326h3.415a2.758 2.758 0 01-1.25 1.825v1.505h2.069c1.202-1.049 1.876-2.6 1.876-4.424z" fill="#4285F4"/><path d="M6.526 13.958c1.732 0 3.175-.548 4.234-1.46l-2.07-1.505c-.576.365-1.298.593-2.164.593-1.635 0-3.078-1.05-3.56-2.51H.85v1.552c1.106 2.053 3.27 3.33 5.676 3.33z" fill="#34A853"/><path d="M2.966 9.078c-.289-.73-.289-1.551 0-2.327v-1.55H.849c-.914 1.687-.914 3.694 0 5.428l2.117-1.551z" fill="#FBBC04"/><path d="M6.526 4.29c.914 0 1.78.32 2.453.912l1.829-1.733C9.653 2.465 8.113 1.872 6.574 1.918c-2.405 0-4.618 1.277-5.676 3.33l2.117 1.55C3.448 5.339 4.89 4.29 6.526 4.29z" fill="#EA4335"/></g></svg>