<svg width="46" height="14" fill="none" xmlns="http://www.w3.org/2000/svg"><mask id="mask0_12_3200" style="mask-type:luminance" maskUnits="userSpaceOnUse" x="0" y="0" width="46" height="14"><path d="M45.454 0H.192v13.685h45.262V0z" fill="#fff"/></mask><g mask="url(#mask0_12_3200)"><path d="M29.667.018c-3.21 0-6.08 1.55-6.08 4.413 0 3.283 5.09 3.51 5.09 5.16 0 .694-.855 1.316-2.316 1.316-2.072 0-3.62-.869-3.62-.869l-.662 2.89s1.784.733 4.152.733c3.51 0 6.272-1.626 6.272-4.538 0-3.47-5.11-3.69-5.11-5.22 0-.544.702-1.14 2.158-1.14 1.642 0 2.982.631 2.982.631l.648-2.79S31.724.018 29.667.018zM.294.228L.216.65s1.35.23 2.567.69c1.567.526 1.678.833 1.942 1.785L7.6 13.444h3.853L17.389.229h-3.844L9.73 9.214 8.174 1.598C8.03.726 7.308.228 6.423.228H.293zm18.641 0L15.92 13.445h3.666L22.59.229h-3.656zm20.448 0c-.884 0-1.353.442-1.696 1.212l-5.372 12.004h3.845l.744-2h4.684l.452 2h3.392L42.472.229h-3.09zm.5 3.571l1.14 4.96H37.97l1.913-4.96z" fill="#1434CB"/></g></svg>