<svg width="59" height="14" fill="none" xmlns="http://www.w3.org/2000/svg"><mask id="mask0_12_3205" style="mask-type:luminance" maskUnits="userSpaceOnUse" x="0" y="0" width="59" height="14"><path d="M58.179 0H.454v13.685h57.725V0z" fill="#fff"/></mask><g mask="url(#mask0_12_3205)"><path d="M7.38.002H2.89c-.306 0-.568.199-.615.469L.459 10.713c-.037.202.14.385.37.385h2.143c.308 0 .569-.199.617-.47l.49-2.762c.047-.27.309-.469.615-.469h1.421c2.958 0 4.665-1.273 5.11-3.796.202-1.104.01-1.972-.572-2.579-.638-.667-1.77-1.02-3.272-1.02zm.518 3.741c-.245 1.433-1.476 1.433-2.666 1.433h-.678L5.03 2.5c.028-.162.185-.281.37-.281h.31c.81 0 1.575 0 1.97.41.236.246.309.61.218 1.114zm12.906-.045h-2.15c-.183 0-.342.12-.37.281l-.095.535-.15-.194c-.466-.6-1.504-.802-2.54-.802-2.376 0-4.405 1.601-4.8 3.847-.206 1.12.086 2.191.8 2.938.656.687 1.593.973 2.709.973 1.914 0 2.976-1.095 2.976-1.095l-.096.532c-.036.203.14.385.369.385h1.936c.308 0 .568-.198.617-.469l1.162-6.546c.037-.202-.138-.385-.368-.385zm-2.997 3.723c-.208 1.093-1.182 1.826-2.426 1.826-.624 0-1.123-.178-1.444-.515-.318-.336-.438-.813-.337-1.344.194-1.084 1.185-1.841 2.41-1.841.61 0 1.106.18 1.433.52.327.345.457.825.364 1.354zm14.446-3.724h-2.16a.65.65 0 00-.517.244l-2.98 3.905-1.263-3.753c-.08-.235-.323-.396-.599-.396h-2.123c-.258 0-.437.224-.355.44l2.38 6.214-2.237 2.81c-.177.221.001.525.305.525h2.157a.649.649 0 00.513-.238L32.56 4.22c.172-.22-.004-.523-.307-.523z" fill="#283B82"/><path d="M39.406.002h-4.49c-.307 0-.568.199-.616.469l-1.816 10.242c-.036.202.14.385.369.385h2.304c.214 0 .398-.14.431-.329l.516-2.903c.047-.27.309-.469.616-.469h1.42c2.959 0 4.664-1.273 5.11-3.796.202-1.104.009-1.972-.572-2.579C42.04.355 40.91.002 39.406.002zm.519 3.741c-.245 1.433-1.476 1.433-2.667 1.433h-.677l.476-2.676c.028-.162.184-.281.369-.281h.31c.81 0 1.576 0 1.97.41.236.246.308.61.219 1.114zm12.902-.045h-2.149c-.184 0-.341.12-.369.281l-.095.535-.151-.194c-.465-.6-1.503-.802-2.54-.802-2.375 0-4.403 1.601-4.799 3.847-.204 1.12.086 2.191.8 2.938.657.687 1.593.973 2.709.973 1.914 0 2.976-1.095 2.976-1.095l-.096.532c-.036.203.14.385.37.385h1.936c.307 0 .568-.198.616-.469l1.163-6.546c.035-.202-.14-.385-.371-.385zM49.83 7.421c-.206 1.093-1.182 1.826-2.426 1.826-.623 0-1.123-.178-1.444-.515-.318-.336-.437-.813-.337-1.344.195-1.084 1.185-1.841 2.41-1.841.61 0 1.106.18 1.433.52.329.345.459.825.364 1.354zM55.36.283l-1.842 10.43c-.037.202.14.385.368.385h1.853c.308 0 .57-.199.617-.47L58.173.388c.036-.202-.14-.385-.37-.385H55.73c-.183 0-.34.12-.369.281z" fill="#469BDB"/></g></svg>