<svg width="355" height="169" fill="none" xmlns="http://www.w3.org/2000/svg"><path d="M0 0v169h305.912l1.649-3.246L355 81.589V0H0zm353.351 48.143l-3.572-7.032v17.31l3.572 7.032v3.245l-3.572-7.032v17.31l3.572 7.032v-5.5l-48.263 85.787H179.973l-3.572-7.032h-8.793l3.572 7.032h-1.648l-3.572-7.032h-8.793l3.572 7.032h-1.923l-3.572-7.032h-8.793l3.572 7.032h-1.648l-3.572-7.032h-8.793l3.572 7.032H43.688l-3.572-7.032h-8.793l3.572 7.032h-1.923l-3.572-7.032h-8.792l3.572 7.032h-1.924L1.923 126.266v-4.327l3.572 7.032v-17.31l-3.572-7.032v-3.245l3.298 6.491v-17.31l-3.572-7.032V41.652L21.157 3.246h153.87l3.572 7.032h8.793l-3.298-7.032h1.649l3.572 7.032h8.793l-3.572-7.032h1.923l3.572 7.032h8.793l-3.572-7.032h1.648l3.572 7.032h8.793l-3.572-7.032h95.894l3.572 7.032h8.792l-3.572-7.032h1.649l3.572 7.032h8.792l-3.572-7.032h3.023l19.508 38.406v6.49z" fill="#657078"/></svg>