<svg width="60" height="61" fill="none" xmlns="http://www.w3.org/2000/svg"><path d="M18.987 60.196C8.544 60.196 0 51.715 0 41.272V19.183C0 8.74 8.481.26 18.924.26h22.152C51.519.26 60 8.74 60 19.183v22.089c0 10.443-8.481 18.924-18.924 18.924H18.987z" fill="url(#paint0_linear_12_297)"/><path d="M18.987 60.196C8.544 60.196 0 51.715 0 41.272V19.183C0 8.74 8.481.26 18.924.26h22.152C51.519.26 60 8.74 60 19.183v22.089c0 10.443-8.481 18.924-18.924 18.924H18.987z" fill="url(#paint1_linear_12_297)"/><path d="M41.076.196H18.987C8.544.196 0 8.74 0 19.183v7.658c7.722 7.975 18.481 12.912 30.443 12.912 11.519 0 21.962-4.62 29.557-12.026v-8.544C60 8.74 51.519.196 41.076.196z" fill="url(#paint2_linear_12_297)"/><path d="M41.076 54.943H18.987c-7.531 0-13.67-6.14-13.67-13.671V19.183c0-7.531 6.139-13.67 13.67-13.67h22.089c7.532 0 13.67 6.139 13.67 13.67v22.089c0 7.531-6.138 13.67-13.67 13.67z" fill="url(#paint3_radial_12_297)"/><path d="M39.304 51.019H20.696c-6.329 0-11.455-5.127-11.455-11.456V20.892c0-6.33 5.126-11.456 11.455-11.456h18.608c6.329 0 11.456 5.127 11.456 11.456V39.5c.063 6.329-5.127 11.519-11.456 11.519z" fill="url(#paint4_linear_12_297)"/><path d="M33.544 21.525c-2.025 0-2.405.95-2.405 2.342v3.038h4.747l-.633 4.81H31.14v12.342h-4.936V31.778H22.09v-4.81h4.177v-3.544c0-4.114 2.532-6.33 6.202-6.33 1.772 0 3.291.127 3.734.19v4.24h-2.658z" fill="#F9FBFC"/><defs><linearGradient id="paint0_linear_12_297" x1="30.021" y1="-1.389" x2="30.021" y2="60.989" gradientUnits="userSpaceOnUse"><stop stop-color="#fff"/><stop offset=".02" stop-color="#C1C1C1" stop-opacity=".854"/><stop offset=".041" stop-color="#878787" stop-opacity=".698"/><stop offset=".059" stop-color="#5C5C5C" stop-opacity=".565"/><stop offset=".073" stop-color="#424242" stop-opacity=".461"/><stop offset=".081" stop-color="#383838" stop-opacity=".4"/><stop offset=".52" stop-color="#363636" stop-opacity=".2"/><stop offset=".902" stop-color="#363636" stop-opacity=".25"/><stop offset=".917" stop-color="#3A3A3A" stop-opacity=".364"/><stop offset=".931" stop-color="#454545" stop-opacity=".47"/><stop offset=".944" stop-color="#585858" stop-opacity=".574"/><stop offset=".958" stop-color="#737373" stop-opacity=".676"/><stop offset=".971" stop-color="#959595" stop-opacity=".776"/><stop offset=".984" stop-color="#BFBFBF" stop-opacity=".876"/><stop offset=".997" stop-color="#F0F0F0" stop-opacity=".973"/><stop offset="1" stop-color="#fff"/></linearGradient><linearGradient id="paint1_linear_12_297" x1="30.021" y1="-1.389" x2="30.021" y2="60.989" gradientUnits="userSpaceOnUse"><stop stop-color="#fff"/><stop offset=".012" stop-color="#C1C1C1" stop-opacity=".854"/><stop offset=".025" stop-color="#878787" stop-opacity=".698"/><stop offset=".036" stop-color="#5C5C5C" stop-opacity=".565"/><stop offset=".044" stop-color="#424242" stop-opacity=".461"/><stop offset=".049" stop-color="#383838" stop-opacity=".4"/><stop offset=".52" stop-color="#363636" stop-opacity=".2"/><stop offset=".979" stop-color="#363636" stop-opacity=".25"/><stop offset=".983" stop-color="#3A3A3A" stop-opacity=".364"/><stop offset=".986" stop-color="#454545" stop-opacity=".47"/><stop offset=".988" stop-color="#585858" stop-opacity=".574"/><stop offset=".991" stop-color="#737373" stop-opacity=".676"/><stop offset=".994" stop-color="#959595" stop-opacity=".776"/><stop offset=".997" stop-color="#BFBFBF" stop-opacity=".876"/><stop offset=".999" stop-color="#F0F0F0" stop-opacity=".973"/><stop offset="1" stop-color="#fff"/></linearGradient><linearGradient id="paint2_linear_12_297" x1="30.021" y1="66.346" x2="30.021" y2="-25.139" gradientUnits="userSpaceOnUse"><stop stop-color="#fff"/><stop offset=".13" stop-color="#BFBFBF" stop-opacity=".8"/><stop offset=".263" stop-color="#858585" stop-opacity=".595"/><stop offset=".378" stop-color="#5A5A5A" stop-opacity=".418"/><stop offset=".467" stop-color="#404040" stop-opacity=".281"/><stop offset=".52" stop-color="#363636" stop-opacity=".2"/><stop offset=".979" stop-color="#363636" stop-opacity=".25"/><stop offset=".983" stop-color="#3A3A3A" stop-opacity=".364"/><stop offset=".986" stop-color="#454545" stop-opacity=".47"/><stop offset=".988" stop-color="#585858" stop-opacity=".574"/><stop offset=".991" stop-color="#737373" stop-opacity=".676"/><stop offset=".994" stop-color="#959595" stop-opacity=".776"/><stop offset=".997" stop-color="#BFBFBF" stop-opacity=".876"/><stop offset=".999" stop-color="#F0F0F0" stop-opacity=".973"/><stop offset="1" stop-color="#fff"/></linearGradient><linearGradient id="paint4_linear_12_297" x1="18.5" y1="52.5" x2="43.47" y2="9.483" gradientUnits="userSpaceOnUse"><stop stop-color="#0062D5"/><stop offset=".996" stop-color="#00FFD5"/></linearGradient><radialGradient id="paint3_radial_12_297" cx="0" cy="0" r="1" gradientUnits="userSpaceOnUse" gradientTransform="translate(57.689 116.712) scale(141.374)"><stop stop-color="#474444"/><stop offset=".251" stop-color="#282727"/><stop offset=".537" stop-color="#0B0B0B"/><stop offset=".7"/></radialGradient></defs></svg>