<svg width="61" height="61" fill="none" xmlns="http://www.w3.org/2000/svg"><path d="M19.791 60.196C9.348 60.196.805 51.715.805 41.272V19.183C.804 8.74 9.285.259 19.728.259H41.88c10.443 0 18.924 8.481 18.924 18.924v22.089c0 10.443-8.48 18.924-18.924 18.924H19.791z" fill="url(#paint0_linear_12_298)"/><path d="M41.88.196H19.791C9.348.196.805 8.74.805 19.183v7.658c7.722 7.975 18.481 12.912 30.443 12.912 11.52 0 21.962-4.62 29.557-12.026v-8.544C60.804 8.74 52.324.196 41.88.196z" fill="url(#paint1_linear_12_298)"/><path d="M41.88 54.943H19.791c-7.531 0-13.67-6.14-13.67-13.671V19.183c0-7.532 6.139-13.67 13.67-13.67h22.09c7.53 0 13.67 6.138 13.67 13.67v22.089c0 7.531-6.14 13.67-13.67 13.67z" fill="url(#paint2_radial_12_298)"/><path d="M40.108 51.019H21.5c-6.329 0-11.455-5.127-11.455-11.456V20.892c0-6.33 5.126-11.456 11.455-11.456h18.608c6.33 0 11.456 5.127 11.456 11.456v18.607c.063 6.33-5.127 11.52-11.456 11.52z" fill="url(#paint3_linear_12_298)"/><path d="M19.032 34.943v-9.747c.063-.254.127-.57.127-.823.19-3.165 2.152-5.506 5.253-6.203.633-.126 1.329-.19 1.962-.316h9.747c.253.063.506.127.76.127 3.607.19 6.265 2.784 6.392 6.392.063 3.797.126 7.595 0 11.392-.127 3.545-2.785 6.203-6.33 6.33-3.797.126-7.594.063-11.455 0-3.165-.064-5.507-2.216-6.14-5.254-.126-.57-.19-1.266-.316-1.898zm12.215 5c1.772 0 3.544.063 5.38 0 1.456-.064 2.721-.57 3.608-1.773.57-.822.886-1.772.886-2.784 0-3.482.063-6.963 0-10.38-.064-2.975-1.71-4.684-4.684-4.747a280.245 280.245 0 00-10.316 0c-2.975.063-4.62 1.709-4.684 4.683a283.694 283.694 0 000 10.38c.063 2.912 1.772 4.557 4.62 4.62 1.71.064 3.418 0 5.19 0z" fill="#F9FBFC"/><path d="M30.93 36.335c-3.48-.063-6.202-2.848-6.202-6.33.063-3.48 2.848-6.202 6.33-6.202 3.48.064 6.202 2.848 6.139 6.266 0 3.544-2.785 6.266-6.266 6.266zm4.115-6.266c0-2.278-1.772-4.05-4.05-4.05-2.28 0-4.052 1.772-4.052 4.05a3.97 3.97 0 003.988 3.987c2.278.064 4.114-1.708 4.114-3.987zm2.405-7.911c.823 0 1.456.633 1.456 1.455 0 .823-.633 1.456-1.456 1.456-.76 0-1.456-.696-1.456-1.456 0-.822.633-1.455 1.456-1.455z" fill="#F9FBFC"/><defs><linearGradient id="paint0_linear_12_298" x1="30.825" y1="-1.389" x2="30.825" y2="60.989" gradientUnits="userSpaceOnUse"><stop stop-color="#fff"/><stop offset=".02" stop-color="#C1C1C1" stop-opacity=".854"/><stop offset=".041" stop-color="#878787" stop-opacity=".698"/><stop offset=".059" stop-color="#5C5C5C" stop-opacity=".565"/><stop offset=".073" stop-color="#424242" stop-opacity=".461"/><stop offset=".081" stop-color="#383838" stop-opacity=".4"/><stop offset=".52" stop-color="#363636" stop-opacity=".2"/><stop offset=".902" stop-color="#363636" stop-opacity=".25"/><stop offset=".917" stop-color="#3A3A3A" stop-opacity=".364"/><stop offset=".931" stop-color="#454545" stop-opacity=".47"/><stop offset=".944" stop-color="#585858" stop-opacity=".574"/><stop offset=".958" stop-color="#737373" stop-opacity=".676"/><stop offset=".971" stop-color="#959595" stop-opacity=".776"/><stop offset=".984" stop-color="#BFBFBF" stop-opacity=".876"/><stop offset=".997" stop-color="#F0F0F0" stop-opacity=".973"/><stop offset="1" stop-color="#fff"/></linearGradient><linearGradient id="paint1_linear_12_298" x1="30.825" y1="66.345" x2="30.825" y2="-25.139" gradientUnits="userSpaceOnUse"><stop stop-color="#fff"/><stop offset=".13" stop-color="#BFBFBF" stop-opacity=".8"/><stop offset=".263" stop-color="#858585" stop-opacity=".595"/><stop offset=".378" stop-color="#5A5A5A" stop-opacity=".418"/><stop offset=".467" stop-color="#404040" stop-opacity=".281"/><stop offset=".52" stop-color="#363636" stop-opacity=".2"/><stop offset=".979" stop-color="#363636" stop-opacity=".25"/><stop offset=".983" stop-color="#3A3A3A" stop-opacity=".364"/><stop offset=".986" stop-color="#454545" stop-opacity=".47"/><stop offset=".988" stop-color="#585858" stop-opacity=".574"/><stop offset=".991" stop-color="#737373" stop-opacity=".676"/><stop offset=".994" stop-color="#959595" stop-opacity=".776"/><stop offset=".997" stop-color="#BFBFBF" stop-opacity=".876"/><stop offset=".999" stop-color="#F0F0F0" stop-opacity=".973"/><stop offset="1" stop-color="#fff"/></linearGradient><linearGradient id="paint3_linear_12_298" x1="18.5" y1="51" x2="43.971" y2="9.982" gradientUnits="userSpaceOnUse"><stop offset=".32" stop-color="#FD279C"/><stop offset="1" stop-color="#FFDC4E"/></linearGradient><radialGradient id="paint2_radial_12_298" cx="0" cy="0" r="1" gradientUnits="userSpaceOnUse" gradientTransform="translate(58.493 116.712) scale(141.374)"><stop stop-color="#474444"/><stop offset=".251" stop-color="#282727"/><stop offset=".537" stop-color="#0B0B0B"/><stop offset=".7"/></radialGradient></defs></svg>