<svg width="61" height="61" fill="none" xmlns="http://www.w3.org/2000/svg"><path d="M19.596 60.196C9.153 60.196.61 51.715.61 41.272V19.183C.609 8.74 9.089.259 19.533.259h22.152c10.443 0 18.924 8.481 18.924 18.924v22.089c0 10.443-8.481 18.924-18.924 18.924H19.596z" fill="url(#paint0_linear_12_299)"/><path d="M41.685.196H19.596C9.153.196.61 8.74.61 19.183v7.658c7.721 7.975 18.48 12.912 30.443 12.912 11.519 0 21.962-4.62 29.557-12.026v-8.544C60.609 8.74 52.128.196 41.685.196z" fill="url(#paint1_linear_12_299)"/><path d="M41.685 54.943H19.596c-7.531 0-13.67-6.14-13.67-13.671V19.183c0-7.532 6.139-13.67 13.67-13.67h22.089c7.532 0 13.67 6.138 13.67 13.67v22.089c0 7.531-6.138 13.67-13.67 13.67z" fill="url(#paint2_radial_12_299)"/><path d="M39.913 51.019H21.305c-6.329 0-11.456-5.127-11.456-11.456V20.892c0-6.33 5.127-11.456 11.456-11.456h18.608c6.329 0 11.455 5.127 11.455 11.456v18.607c.064 6.33-5.126 11.52-11.455 11.52z" fill="url(#paint3_radial_12_299)"/><path d="M39.66 38.487l-7.026-10.253-.823-1.14-5-7.278-.443-.633h-6.202l1.519 2.215 6.709 9.684.823 1.139 5.38 7.785.442.633h6.203l-1.582-2.152zm-3.924.76l-5.57-8.102-.823-1.14-6.456-9.43h2.785l5.253 7.595.823 1.14 6.772 9.936h-2.785z" fill="#fff"/><path d="M29.343 30.006l.823 1.139-.95 1.14-7.215 8.354H20.23l8.228-9.557.886-1.076zm11.076-10.823l-7.785 9.05-.95 1.14-.759-1.14.95-1.139 6.772-7.911h1.772z" fill="#fff"/><defs><radialGradient id="paint2_radial_12_299" cx="0" cy="0" r="1" gradientUnits="userSpaceOnUse" gradientTransform="translate(58.297 116.712) scale(141.374)"><stop stop-color="#474444"/><stop offset=".251" stop-color="#282727"/><stop offset=".537" stop-color="#0B0B0B"/><stop offset=".7"/></radialGradient><radialGradient id="paint3_radial_12_299" cx="0" cy="0" r="1" gradientUnits="userSpaceOnUse" gradientTransform="matrix(137.131 0 0 136.924 52.2 -12.624)"><stop stop-color="#474444"/><stop offset=".251" stop-color="#282727"/><stop offset=".537" stop-color="#0B0B0B"/><stop offset=".7"/></radialGradient><linearGradient id="paint0_linear_12_299" x1="30.63" y1="-1.389" x2="30.63" y2="60.989" gradientUnits="userSpaceOnUse"><stop stop-color="#fff"/><stop offset=".02" stop-color="#C1C1C1" stop-opacity=".854"/><stop offset=".041" stop-color="#878787" stop-opacity=".698"/><stop offset=".059" stop-color="#5C5C5C" stop-opacity=".565"/><stop offset=".073" stop-color="#424242" stop-opacity=".461"/><stop offset=".081" stop-color="#383838" stop-opacity=".4"/><stop offset=".52" stop-color="#363636" stop-opacity=".2"/><stop offset=".902" stop-color="#363636" stop-opacity=".25"/><stop offset=".917" stop-color="#3A3A3A" stop-opacity=".364"/><stop offset=".931" stop-color="#454545" stop-opacity=".47"/><stop offset=".944" stop-color="#585858" stop-opacity=".574"/><stop offset=".958" stop-color="#737373" stop-opacity=".676"/><stop offset=".971" stop-color="#959595" stop-opacity=".776"/><stop offset=".984" stop-color="#BFBFBF" stop-opacity=".876"/><stop offset=".997" stop-color="#F0F0F0" stop-opacity=".973"/><stop offset="1" stop-color="#fff"/></linearGradient><linearGradient id="paint1_linear_12_299" x1="30.63" y1="66.345" x2="30.63" y2="-25.139" gradientUnits="userSpaceOnUse"><stop stop-color="#fff"/><stop offset=".13" stop-color="#BFBFBF" stop-opacity=".8"/><stop offset=".263" stop-color="#858585" stop-opacity=".595"/><stop offset=".378" stop-color="#5A5A5A" stop-opacity=".418"/><stop offset=".467" stop-color="#404040" stop-opacity=".281"/><stop offset=".52" stop-color="#363636" stop-opacity=".2"/><stop offset=".979" stop-color="#363636" stop-opacity=".25"/><stop offset=".983" stop-color="#3A3A3A" stop-opacity=".364"/><stop offset=".986" stop-color="#454545" stop-opacity=".47"/><stop offset=".988" stop-color="#585858" stop-opacity=".574"/><stop offset=".991" stop-color="#737373" stop-opacity=".676"/><stop offset=".994" stop-color="#959595" stop-opacity=".776"/><stop offset=".997" stop-color="#BFBFBF" stop-opacity=".876"/><stop offset=".999" stop-color="#F0F0F0" stop-opacity=".973"/><stop offset="1" stop-color="#fff"/></linearGradient></defs></svg>