<svg width="61" height="60" fill="none" xmlns="http://www.w3.org/2000/svg"><path d="M19.4 60C8.957 60 .413 51.519.413 41.076V18.987C.413 8.544 8.894.063 19.337.063H41.49c10.443 0 18.924 8.481 18.924 18.924v22.089C60.413 51.519 51.933 60 41.49 60H19.4z" fill="url(#paint0_linear_12_300)"/><path d="M41.489 0H19.4C8.957 0 .413 8.544.413 18.987v7.659c7.722 7.974 18.481 12.911 30.443 12.911 11.52 0 21.962-4.62 29.557-12.025v-8.545C60.413 8.544 51.933 0 41.49 0z" fill="url(#paint1_linear_12_300)"/><path d="M41.489 54.747H19.4c-7.531 0-13.67-6.14-13.67-13.671V18.987c0-7.531 6.139-13.67 13.67-13.67h22.09c7.532 0 13.67 6.139 13.67 13.67v22.089c0 7.532-6.138 13.67-13.67 13.67z" fill="url(#paint2_radial_12_300)"/><path d="M39.717 50.823H21.109c-6.329 0-11.455-5.127-11.455-11.456v-18.67c0-6.33 5.126-11.456 11.455-11.456h18.608c6.329 0 11.456 5.126 11.456 11.455v18.608c.063 6.329-5.127 11.519-11.456 11.519z" fill="url(#paint3_linear_12_300)"/><path d="M21.255 24.536l7.957 7.958a1.345 1.345 0 001.8.092l.103-.092 7.952-7.953c.026.099.043.199.052.302l.007.157v10.76a1.794 1.794 0 01-1.659 1.788l-.134.005H22.987a1.793 1.793 0 01-1.789-1.659l-.004-.134V25a1.8 1.8 0 01.027-.314l.034-.15zm16.078-1.33c.108 0 .215.01.318.029l.153.035-7.64 7.639-7.642-7.641c.1-.027.201-.045.305-.054l.16-.007h14.346z" fill="#fff"/><defs><linearGradient id="paint0_linear_12_300" x1="30.434" y1="-1.585" x2="30.434" y2="60.793" gradientUnits="userSpaceOnUse"><stop stop-color="#fff"/><stop offset=".02" stop-color="#C1C1C1" stop-opacity=".854"/><stop offset=".041" stop-color="#878787" stop-opacity=".698"/><stop offset=".059" stop-color="#5C5C5C" stop-opacity=".565"/><stop offset=".073" stop-color="#424242" stop-opacity=".461"/><stop offset=".081" stop-color="#383838" stop-opacity=".4"/><stop offset=".52" stop-color="#363636" stop-opacity=".2"/><stop offset=".902" stop-color="#363636" stop-opacity=".25"/><stop offset=".917" stop-color="#3A3A3A" stop-opacity=".364"/><stop offset=".931" stop-color="#454545" stop-opacity=".47"/><stop offset=".944" stop-color="#585858" stop-opacity=".574"/><stop offset=".958" stop-color="#737373" stop-opacity=".676"/><stop offset=".971" stop-color="#959595" stop-opacity=".776"/><stop offset=".984" stop-color="#BFBFBF" stop-opacity=".876"/><stop offset=".997" stop-color="#F0F0F0" stop-opacity=".973"/><stop offset="1" stop-color="#fff"/></linearGradient><linearGradient id="paint1_linear_12_300" x1="30.434" y1="66.15" x2="30.434" y2="-25.335" gradientUnits="userSpaceOnUse"><stop stop-color="#fff"/><stop offset=".13" stop-color="#BFBFBF" stop-opacity=".8"/><stop offset=".263" stop-color="#858585" stop-opacity=".595"/><stop offset=".378" stop-color="#5A5A5A" stop-opacity=".418"/><stop offset=".467" stop-color="#404040" stop-opacity=".281"/><stop offset=".52" stop-color="#363636" stop-opacity=".2"/><stop offset=".979" stop-color="#363636" stop-opacity=".25"/><stop offset=".983" stop-color="#3A3A3A" stop-opacity=".364"/><stop offset=".986" stop-color="#454545" stop-opacity=".47"/><stop offset=".988" stop-color="#585858" stop-opacity=".574"/><stop offset=".991" stop-color="#737373" stop-opacity=".676"/><stop offset=".994" stop-color="#959595" stop-opacity=".776"/><stop offset=".997" stop-color="#BFBFBF" stop-opacity=".876"/><stop offset=".999" stop-color="#F0F0F0" stop-opacity=".973"/><stop offset="1" stop-color="#fff"/></linearGradient><linearGradient id="paint3_linear_12_300" x1="20.965" y1="68.7" x2="45.352" y2="-31.218" gradientUnits="userSpaceOnUse"><stop stop-color="#E1081D"/><stop offset="1" stop-color="#E108AE"/></linearGradient><radialGradient id="paint2_radial_12_300" cx="0" cy="0" r="1" gradientUnits="userSpaceOnUse" gradientTransform="translate(58.102 116.517) scale(141.374)"><stop stop-color="#474444"/><stop offset=".251" stop-color="#282727"/><stop offset=".537" stop-color="#0B0B0B"/><stop offset=".7"/></radialGradient></defs></svg>