<svg width="353" height="169" fill="none" xmlns="http://www.w3.org/2000/svg"><path d="M0 0v169h273.493l1.639-1.628L353 90.061V0H0zm351.361 24.143l-3.552-3.527v8.681l3.552 3.526v1.628l-3.552-3.526v8.68l3.552 3.527v46.387l-78.688 78.125h-93.714l-3.552-3.527h-8.743l3.552 3.527h-1.639l-3.552-3.527h-8.743l3.552 3.527h-1.913l-3.552-3.527h-8.743l3.552 3.527h-1.639l-3.552-3.527h-8.743l3.552 3.527H43.442l-3.552-3.527h-8.743l3.552 3.527h-1.913l-3.552-3.527h-8.743l3.552 3.527h-1.912L1.913 147.57v-2.17l3.551 3.526v-8.68l-3.551-3.527v-1.628l3.278 3.256v-8.681L1.64 126.14V20.888l19.399-19.26H174.04l3.552 3.526h8.743l-3.279-3.526h1.64l3.551 3.526h8.743l-3.551-3.526h1.912l3.552 3.526h8.743l-3.552-3.526h1.64l3.551 3.526h8.743l-3.551-3.526h95.353l3.552 3.526h8.743l-3.552-3.526h1.64l3.552 3.526h8.743l-3.552-3.526h3.005l19.399 19.26v3.255z" fill="#657078"/></svg>