<svg width="50" height="51" fill="none" xmlns="http://www.w3.org/2000/svg"><path d="M26.827 9.263a.74.74 0 00-.817.658c-.045.41.246.78.651.826 7.42.846 13.014 7.188 13.014 14.753 0 8.186-6.583 14.846-14.675 14.846S10.325 33.686 10.325 25.5c0-7.555 5.587-13.897 12.995-14.75a.745.745 0 00.65-.827.74.74 0 00-.817-.658c-8.155.94-14.305 7.92-14.305 16.235 0 9.01 7.246 16.34 16.152 16.34s16.152-7.33 16.152-16.34c0-8.326-6.159-15.307-14.325-16.237z" fill="#68E1FC"/><path d="M43.152 32.163a3.181 3.181 0 01.861-3.251 4.674 4.674 0 000-6.824 3.18 3.18 0 01-.861-3.251 4.697 4.697 0 00-.405-3.703 4.6 4.6 0 00-2.967-2.207 3.138 3.138 0 01-2.353-2.38 4.645 4.645 0 00-2.18-3.002 4.548 4.548 0 00-3.661-.41 3.096 3.096 0 01-3.214-.87A4.571 4.571 0 0025 4.767a4.572 4.572 0 00-3.372 1.496 3.095 3.095 0 01-3.214.872 4.548 4.548 0 00-3.66.41 4.645 4.645 0 00-2.181 3.001 3.138 3.138 0 01-2.353 2.38 4.6 4.6 0 00-2.967 2.207 4.697 4.697 0 00-.405 3.703 3.18 3.18 0 01-.861 3.251 4.674 4.674 0 000 6.824 3.18 3.18 0 01.86 3.251 4.697 4.697 0 00.406 3.703 4.6 4.6 0 002.967 2.206 3.138 3.138 0 012.353 2.38 4.645 4.645 0 002.18 3.003 4.548 4.548 0 003.661.41 3.096 3.096 0 013.213.87A4.572 4.572 0 0025 46.233a4.572 4.572 0 003.372-1.496 3.096 3.096 0 013.214-.872 4.549 4.549 0 003.66-.41 4.645 4.645 0 002.181-3.002 3.138 3.138 0 012.353-2.38 4.6 4.6 0 002.967-2.206c.64-1.12.787-2.47.405-3.703zm-1.41.446c.263.849.166 1.74-.274 2.51a3.077 3.077 0 01-2.011 1.496c-1.723.39-3.085 1.768-3.471 3.511a3.107 3.107 0 01-1.478 2.035 3.043 3.043 0 01-2.481.277 4.567 4.567 0 00-4.741 1.286A3.057 3.057 0 0125 44.738a3.06 3.06 0 01-2.286-1.014 4.58 4.58 0 00-3.382-1.495 4.5 4.5 0 00-1.359.21 3.044 3.044 0 01-2.48-.278 3.107 3.107 0 01-1.479-2.035c-.386-1.743-1.748-3.121-3.47-3.511a3.077 3.077 0 01-2.012-1.496 3.141 3.141 0 01-.274-2.51 4.693 4.693 0 00-1.27-4.796A3.127 3.127 0 015.983 25.5c0-.89.356-1.71 1.003-2.313a4.693 4.693 0 001.27-4.796 3.141 3.141 0 01.275-2.51 3.077 3.077 0 012.011-1.495c1.723-.39 3.085-1.77 3.471-3.512a3.107 3.107 0 011.478-2.035 3.042 3.042 0 012.481-.277 4.567 4.567 0 004.741-1.286A3.057 3.057 0 0125 6.262c.879 0 1.69.36 2.286 1.014a4.567 4.567 0 004.741 1.286 3.042 3.042 0 012.48.277 3.107 3.107 0 011.479 2.035c.386 1.743 1.748 3.121 3.47 3.511a3.077 3.077 0 012.012 1.496c.44.77.537 1.661.275 2.51a4.692 4.692 0 001.27 4.797 3.126 3.126 0 011.003 2.312c0 .89-.356 1.71-1.003 2.313a4.692 4.692 0 00-1.27 4.796zm1.343-24.866a.732.732 0 00.522-.219l6.176-6.248a.753.753 0 000-1.057.732.732 0 00-1.044 0l-6.176 6.249a.753.753 0 000 1.056.732.732 0 00.522.22zm6.889 2.717a.737.737 0 00-.907-.525l-3.088.853a.748.748 0 00.194 1.467.73.73 0 00.195-.026l3.088-.852a.748.748 0 00.518-.918zm-11.61-5.868a.74.74 0 00.907-.524l.843-3.124a.748.748 0 00-.518-.917.737.737 0 00-.907.524l-.842 3.124a.748.748 0 00.517.917zM6.393 7.524a.732.732 0 001.044 0 .753.753 0 000-1.056L1.261.219a.732.732 0 00-1.044 0 .753.753 0 000 1.057l6.176 6.248zm-2.372 3.264L.933 9.935a.737.737 0 00-.907.524.748.748 0 00.518.918l3.089.852a.74.74 0 00.907-.524.748.748 0 00-.519-.917zm6.708-6.72a.74.74 0 00.907.524.748.748 0 00.518-.917L11.31.551a.737.737 0 00-.907-.524.748.748 0 00-.518.917l.843 3.124zm32.878 39.408a.732.732 0 00-1.044 0 .753.753 0 000 1.056l6.176 6.25a.732.732 0 001.044 0 .753.753 0 000-1.057l-6.176-6.25zm5.849-3.853l-3.089-.852a.737.737 0 00-.906.524.748.748 0 00.518.917l3.088.853a.74.74 0 00.907-.524.748.748 0 00-.518-.918zm-10.185 7.309a.737.737 0 00-.907-.524.748.748 0 00-.517.917l.842 3.124a.74.74 0 00.907.524.748.748 0 00.518-.917l-.843-3.124zM6.393 43.476L.217 49.725a.753.753 0 000 1.056.732.732 0 001.044 0l6.176-6.249a.753.753 0 000-1.056.732.732 0 00-1.044 0zm-2.761-4.705l-3.088.852a.748.748 0 00.194 1.468.73.73 0 00.195-.026l3.088-.853a.748.748 0 00.518-.917.737.737 0 00-.907-.524zm8.004 7.637a.737.737 0 00-.907.524l-.843 3.124A.748.748 0 0010.6 51a.74.74 0 00.712-.55l.843-3.125a.748.748 0 00-.518-.917z" fill="#68E1FC"/><path d="M28.18 27.917a.753.753 0 000 1.057.732.732 0 001.043 0l6.06-6.13c.432-.437.67-1.018.67-1.637 0-.618-.238-1.2-.67-1.636l-1.905-1.927a2.272 2.272 0 00-3.235 0l-7.508 7.596-2.626-2.658a2.26 2.26 0 00-1.618-.678 2.26 2.26 0 00-1.618.678l-2.056 2.08a2.313 2.313 0 00-.67 1.637c0 .618.238 1.2.67 1.636l5.268 5.33a3.502 3.502 0 002.499 1.045 3.5 3.5 0 002.498-1.046l1.816-1.837a.753.753 0 000-1.056.732.732 0 00-1.044 0l-1.816 1.837a2.043 2.043 0 01-2.909 0l-5.267-5.33a.82.82 0 01-.238-.58.82.82 0 01.238-.58l2.056-2.079a.801.801 0 011.146 0l3.15 3.186a.732.732 0 001.043 0l8.03-8.124a.805.805 0 011.147 0l1.904 1.927a.82.82 0 01.238.58.82.82 0 01-.238.58l-6.059 6.13z" fill="#68E1FC"/></svg>