<svg width="10" height="10" fill="none" xmlns="http://www.w3.org/2000/svg"><path d="M3.924 7.725C4.246 7.25 4.702 6.667 5 6.667c.298 0 .754.582 1.076 1.058.18.265-.016.608-.336.608H4.26c-.32 0-.515-.343-.336-.608zM5 3.75c.146 0 .41-.319.636-.635.189-.263-.007-.615-.331-.615h-.61c-.324 0-.52.352-.331.615.225.316.49.635.636.635z" fill="#0071BC"/><path fill-rule="evenodd" clip-rule="evenodd" d="M1.667.833c0-.23.186-.416.416-.416h5.834a.417.417 0 010 .833h-.428c-.057 1.005-.318 1.766-.701 2.392-.335.546-.754.975-1.168 1.358.414.383.833.812 1.168 1.358.383.626.644 1.387.7 2.392h.429a.417.417 0 010 .833H2.083a.417.417 0 010-.833h.428c.057-1.005.318-1.766.701-2.392.335-.546.755-.975 1.168-1.358-.413-.383-.833-.812-1.168-1.358-.383-.626-.644-1.387-.7-2.392h-.429a.417.417 0 01-.416-.417zM6.654 8.75c-.055-.854-.277-1.467-.577-1.957-.29-.474-.662-.85-1.077-1.23-.415.38-.786.756-1.077 1.23-.3.49-.522 1.103-.577 1.957h3.308zm-3.308-7.5h3.308c-.055.854-.277 1.467-.577 1.957-.29.474-.662.85-1.077 1.23-.415-.38-.786-.756-1.077-1.23-.3-.49-.522-1.103-.577-1.957z" fill="#0071BC"/></svg>