<svg width="190" height="140" fill="none" xmlns="http://www.w3.org/2000/svg"><path d="M181.533 102.731H190v36.538h-8.467v-36.538zm-12.419 36.538l-1.853-5.742h-13.759l-1.852 5.742h-9.261l12.595-36.538h10.796l12.594 36.538h-9.26zm-13.071-13.571h8.678l-4.339-13.415-4.339 13.415zm-13.668 13.571h-9.102l-4.922-6.89-4.921 6.89h-9.102l9.472-13.258-9.155-12.841h9.102l4.604 6.473 4.604-6.473h9.102l-9.155 12.841 9.473 13.258zm-47.141-9.917c.918 2.436 3.034 3.653 6.351 3.653 2.152 0 3.845-.661 5.08-1.983l6.35 3.602c-2.61 3.584-6.456 5.376-11.536 5.376-4.445 0-8.008-1.305-10.69-3.915-2.646-2.61-3.969-5.898-3.969-9.865 0-3.932 1.306-7.204 3.916-9.813 2.646-2.645 6.033-3.967 10.161-3.967 3.845 0 7.038 1.322 9.578 3.967 2.575 2.609 3.863 5.881 3.863 9.813a14.79 14.79 0 01-.317 3.132H95.234zm-.158-5.847h11.377c-.776-2.749-2.646-4.123-5.609-4.123-3.07 0-4.992 1.374-5.768 4.123zM72.662 112.44c3.034 0 5.469.991 7.303 2.975 1.835 1.949 2.752 4.558 2.752 7.83v16.024h-7.938v-15.346c0-1.322-.335-2.366-1.005-3.132-.635-.765-1.57-1.148-2.805-1.148-1.305 0-2.328.435-3.07 1.305-.705.87-1.058 2.07-1.058 3.601v14.72h-7.938v-15.346c0-1.322-.335-2.366-1.005-3.132-.635-.765-1.57-1.148-2.805-1.148-1.305 0-2.328.435-3.069 1.305-.706.87-1.058 2.07-1.058 3.601v14.72h-7.938V113.17h7.938v2.401c1.446-2.087 3.81-3.131 7.09-3.131 3.07 0 5.38 1.148 6.933 3.445 1.623-2.297 4.18-3.445 7.673-3.445zm-39.746 22.079c-3.74 3.654-8.291 5.481-13.653 5.481-5.363 0-9.914-1.827-13.654-5.481S0 126.359 0 121s1.87-9.865 5.61-13.519C9.348 103.827 13.9 102 19.261 102c5.363 0 9.914 1.827 13.654 5.481s5.61 8.16 5.61 13.519-1.87 9.865-5.61 13.519zm-21.38-5.689c2.082 2.018 4.657 3.027 7.726 3.027 3.07 0 5.628-1.009 7.674-3.027 2.081-2.019 3.122-4.629 3.122-7.83 0-3.201-1.04-5.811-3.122-7.83-2.046-2.018-4.604-3.027-7.674-3.027-3.069 0-5.644 1.009-7.726 3.027-2.046 2.019-3.069 4.629-3.069 7.83 0 3.201 1.023 5.811 3.07 7.83z" fill="#fff"/><path d="M71.684 68.865c-2.888 3.283-7.943 3.611-10.635.165a42.73 42.73 0 01-8.206-17.857c-1.838-9.125-.657-18.644 3.414-27.014a42.771 42.771 0 0119.07-19.465A42.628 42.628 0 0194.398 0c4.366-.033 7.222 4.136 6.467 8.436-.755 4.3-4.924 7.024-9.257 7.55a27.2 27.2 0 00-9.125 2.757A27.015 27.015 0 0070.47 31.019a27.003 27.003 0 00-2.166 17.036 26.656 26.656 0 003.512 8.862c2.33 3.742 2.758 8.699-.131 11.948z" fill="url(#paint0_linear_2005_39)"/><path d="M85.076 9.257c-1.214-4.17 1.215-8.633 5.548-9.06a43.257 43.257 0 0112.506.624 42.66 42.66 0 0118.381 8.567 43.097 43.097 0 0112.375 16.084c2.757 6.27 4.005 13.13 3.578 19.957a42.69 42.69 0 01-6.04 19.366 43.118 43.118 0 01-14.278 14.41 42.908 42.908 0 01-19.3 6.204 43.262 43.262 0 01-12.507-.952c-4.234-.952-6.105-5.679-4.365-9.683 1.74-4.005 6.4-5.712 10.733-5.22 1.674.198 3.348.23 5.022.1a26.777 26.777 0 0012.178-3.907 27.078 27.078 0 008.994-9.092 26.777 26.777 0 003.807-12.21 26.9 26.9 0 00-2.265-12.605c-1.739-3.94-4.431-7.419-7.812-10.143a27.284 27.284 0 00-11.587-5.416 28.267 28.267 0 00-4.989-.525c-4.366-.033-8.764-2.298-9.979-6.5z" fill="url(#paint1_linear_2005_39)"/><g opacity=".2"><path d="M75.36 64.5c-2.429 2.724-6.663 3.02-8.895.131a36.047 36.047 0 01-7.386-18.972 35.914 35.914 0 017.812-25.472c5.777-7.156 14.082-11.85 23.174-13.031a35.48 35.48 0 0120.089 3.217c3.282 1.575 3.906 5.777 1.772 8.698-2.166 2.954-6.302 3.48-9.748 2.265a22.775 22.775 0 00-10.406-1.083 22.433 22.433 0 00-14.607 8.239 22.56 22.56 0 00-4.923 16.05 22.871 22.871 0 003.282 10.012c1.904 3.086 2.265 7.221-.164 9.946z" fill="url(#paint2_linear_2005_39)"/><path d="M67.187 32.792c-3.447-1.248-5.285-5.055-3.414-8.24A35.748 35.748 0 0177.625 11.16c7.746-4.201 16.773-5.383 25.34-3.38a35.956 35.956 0 0121.139 14.377 35.772 35.772 0 016.204 24.782 35.877 35.877 0 01-11.882 22.616c-6.598 5.81-15.132 8.994-23.93 8.96-8.862-.065-17.33-3.347-23.863-9.256a35.62 35.62 0 01-10.274-16.313c-1.05-3.512 1.642-6.795 5.285-7.189 3.644-.394 6.795 2.33 8.239 5.679a22.367 22.367 0 005.679 7.976c4.103 3.742 9.453 5.81 15.033 5.843a22.57 22.57 0 0015.099-5.646c4.169-3.676 6.828-8.764 7.517-14.279.657-5.514-.722-11.094-3.906-15.624a22.65 22.65 0 00-13.327-9.06 22.562 22.562 0 00-15.985 2.134 22.448 22.448 0 00-7.451 6.434c-2.2 2.921-5.909 4.825-9.355 3.578z" fill="url(#paint3_linear_2005_39)"/></g><defs><linearGradient id="paint0_linear_2005_39" x1="76.509" y1=".002" x2="76.509" y2="85.496" gradientUnits="userSpaceOnUse"><stop stop-color="#68E1FC"/><stop offset="1" stop-color="#DBFFFF"/></linearGradient><linearGradient id="paint1_linear_2005_39" x1="95.106" y1="87.064" x2="117.227" y2="4.509" gradientUnits="userSpaceOnUse"><stop stop-color="#68E1FC"/><stop offset="1" stop-color="#DBFFFF"/></linearGradient><linearGradient id="paint2_linear_2005_39" x1="86.065" y1="6.852" x2="86.065" y2="78.497" gradientUnits="userSpaceOnUse"><stop stop-color="#DBFFFF"/><stop offset="1" stop-color="#68E1FC"/></linearGradient><linearGradient id="paint3_linear_2005_39" x1="85.943" y1="77.438" x2="104.497" y2="8.192" gradientUnits="userSpaceOnUse"><stop stop-color="#DBFFFF"/><stop offset="1" stop-color="#68E1FC"/></linearGradient></defs></svg>